<mxfile host="app.diagrams.net" agent="Mozilla/5.0 (Macintosh; Intel Mac OS X 10_15_7) AppleWebKit/537.36 (KHTML, like Gecko) Chrome/138.0.0.0 Safari/537.36" version="28.0.7">
  <diagram name="Page-1" id="2kNOhNaM5vX8RXUcRJxa">
    <mxGraphModel dx="2823" dy="1904" grid="1" gridSize="10" guides="1" tooltips="1" connect="1" arrows="1" fold="1" page="1" pageScale="1" pageWidth="255" pageHeight="155" math="0" shadow="0">
      <root>
        <mxCell id="0" />
        <mxCell id="1" parent="0" />
        <mxCell id="OmzKmfgAjD7RHGHbsQaT-342" value="" style="rounded=0;whiteSpace=wrap;html=1;dashed=1;strokeWidth=2;fillColor=#b1ddf0;strokeColor=#10739e;shadow=1;" vertex="1" parent="1">
          <mxGeometry x="1039" y="480" width="77" height="90" as="geometry" />
        </mxCell>
        <mxCell id="OmzKmfgAjD7RHGHbsQaT-341" value="" style="rounded=0;whiteSpace=wrap;html=1;dashed=1;strokeWidth=2;fillColor=#b0e3e6;strokeColor=#0e8088;shadow=1;" vertex="1" parent="1">
          <mxGeometry x="901" y="487" width="80" height="80" as="geometry" />
        </mxCell>
        <mxCell id="OmzKmfgAjD7RHGHbsQaT-159" value="" style="rounded=0;whiteSpace=wrap;html=1;dashed=1;strokeWidth=2;fillColor=#00C9A7;strokeColor=#000000;shadow=1;" vertex="1" parent="1">
          <mxGeometry x="1123" y="-110" width="100" height="230" as="geometry" />
        </mxCell>
        <mxCell id="OmzKmfgAjD7RHGHbsQaT-158" value="" style="rounded=0;whiteSpace=wrap;html=1;dashed=1;strokeWidth=2;fillColor=#1398d6;strokeColor=#000000;shadow=1;" vertex="1" parent="1">
          <mxGeometry x="967" y="-2" width="140" height="324" as="geometry" />
        </mxCell>
        <mxCell id="OmzKmfgAjD7RHGHbsQaT-157" value="" style="rounded=0;whiteSpace=wrap;html=1;dashed=1;strokeWidth=2;fillColor=#fef3cd;strokeColor=#000000;shadow=1;" vertex="1" parent="1">
          <mxGeometry x="700" y="-2" width="250" height="324" as="geometry" />
        </mxCell>
        <mxCell id="OmzKmfgAjD7RHGHbsQaT-104" value="" style="endArrow=none;html=1;rounded=0;strokeWidth=3;entryX=0;entryY=0.75;entryDx=0;entryDy=0;entryPerimeter=0;" edge="1" parent="1" source="OmzKmfgAjD7RHGHbsQaT-149">
          <mxGeometry width="50" height="50" relative="1" as="geometry">
            <mxPoint x="809" y="317" as="sourcePoint" />
            <mxPoint x="809" y="329" as="targetPoint" />
          </mxGeometry>
        </mxCell>
        <mxCell id="OmzKmfgAjD7RHGHbsQaT-105" value="" style="verticalLabelPosition=bottom;shadow=0;dashed=0;align=center;html=1;verticalAlign=top;shape=mxgraph.electrical.logic_gates.logic_gate;operation=xor;negating=1;negSize=0.15;strokeWidth=3;direction=south;" vertex="1" parent="1">
          <mxGeometry x="851" y="100" width="60" height="100" as="geometry" />
        </mxCell>
        <mxCell id="OmzKmfgAjD7RHGHbsQaT-106" value="" style="verticalLabelPosition=bottom;shadow=0;dashed=0;align=center;html=1;verticalAlign=top;shape=mxgraph.electrical.logic_gates.logic_gate;operation=and;negating=1;negSize=0.15;strokeWidth=3;direction=south;" vertex="1" parent="1">
          <mxGeometry x="720" y="100" width="60" height="100" as="geometry" />
        </mxCell>
        <mxCell id="OmzKmfgAjD7RHGHbsQaT-107" value="" style="verticalLabelPosition=bottom;shadow=0;dashed=0;align=center;html=1;verticalAlign=top;shape=mxgraph.electrical.logic_gates.logic_gate;operation=and;negating=1;negSize=0.15;strokeWidth=3;direction=south;" vertex="1" parent="1">
          <mxGeometry x="772" y="-6" width="60" height="100" as="geometry" />
        </mxCell>
        <mxCell id="OmzKmfgAjD7RHGHbsQaT-108" value="" style="endArrow=none;html=1;rounded=0;entryX=1;entryY=0.5;entryDx=0;entryDy=0;entryPerimeter=0;strokeWidth=3;" edge="1" parent="1" target="OmzKmfgAjD7RHGHbsQaT-107">
          <mxGeometry width="50" height="50" relative="1" as="geometry">
            <mxPoint x="802" y="100" as="sourcePoint" />
            <mxPoint x="802" y="189" as="targetPoint" />
          </mxGeometry>
        </mxCell>
        <mxCell id="OmzKmfgAjD7RHGHbsQaT-109" value="" style="verticalLabelPosition=bottom;shadow=0;dashed=0;align=center;html=1;verticalAlign=top;shape=mxgraph.electrical.logic_gates.logic_gate;operation=xor;negating=1;negSize=0.15;strokeWidth=3;direction=south;" vertex="1" parent="1">
          <mxGeometry x="779" y="222" width="60" height="100" as="geometry" />
        </mxCell>
        <mxCell id="OmzKmfgAjD7RHGHbsQaT-110" value="" style="endArrow=none;html=1;rounded=0;strokeWidth=3;entryX=0;entryY=0.75;entryDx=0;entryDy=0;entryPerimeter=0;edgeStyle=orthogonalEdgeStyle;" edge="1" parent="1" target="OmzKmfgAjD7RHGHbsQaT-106">
          <mxGeometry width="50" height="50" relative="1" as="geometry">
            <mxPoint x="735" y="-140" as="sourcePoint" />
            <mxPoint x="711" y="98" as="targetPoint" />
            <Array as="points">
              <mxPoint x="735" y="-132" />
            </Array>
          </mxGeometry>
        </mxCell>
        <mxCell id="OmzKmfgAjD7RHGHbsQaT-111" value="" style="endArrow=none;html=1;rounded=0;strokeWidth=3;entryX=0;entryY=0.75;entryDx=0;entryDy=0;entryPerimeter=0;edgeStyle=orthogonalEdgeStyle;" edge="1" parent="1" target="OmzKmfgAjD7RHGHbsQaT-107">
          <mxGeometry width="50" height="50" relative="1" as="geometry">
            <mxPoint x="787" y="-140" as="sourcePoint" />
            <mxPoint x="792" y="-21" as="targetPoint" />
          </mxGeometry>
        </mxCell>
        <mxCell id="OmzKmfgAjD7RHGHbsQaT-112" value="" style="endArrow=none;html=1;rounded=0;strokeWidth=3;entryX=0;entryY=0.25;entryDx=0;entryDy=0;entryPerimeter=0;edgeStyle=orthogonalEdgeStyle;" edge="1" parent="1" target="OmzKmfgAjD7RHGHbsQaT-107">
          <mxGeometry width="50" height="50" relative="1" as="geometry">
            <mxPoint x="817" y="-140" as="sourcePoint" />
            <mxPoint x="797" y="9" as="targetPoint" />
          </mxGeometry>
        </mxCell>
        <mxCell id="OmzKmfgAjD7RHGHbsQaT-113" value="" style="verticalLabelPosition=bottom;shadow=0;dashed=0;align=center;html=1;verticalAlign=top;shape=mxgraph.electrical.logic_gates.logic_gate;operation=and;negating=1;negSize=0.15;strokeWidth=3;direction=south;" vertex="1" parent="1">
          <mxGeometry x="873" y="-5" width="60" height="100" as="geometry" />
        </mxCell>
        <mxCell id="OmzKmfgAjD7RHGHbsQaT-114" value="" style="endArrow=none;html=1;rounded=0;strokeWidth=3;" edge="1" parent="1">
          <mxGeometry width="50" height="50" relative="1" as="geometry">
            <mxPoint x="904.5" y="100" as="sourcePoint" />
            <mxPoint x="895" y="100" as="targetPoint" />
          </mxGeometry>
        </mxCell>
        <mxCell id="OmzKmfgAjD7RHGHbsQaT-115" value="" style="endArrow=none;html=1;rounded=0;strokeWidth=3;entryX=0;entryY=0.75;entryDx=0;entryDy=0;entryPerimeter=0;edgeStyle=orthogonalEdgeStyle;" edge="1" parent="1" target="OmzKmfgAjD7RHGHbsQaT-113">
          <mxGeometry width="50" height="50" relative="1" as="geometry">
            <mxPoint x="888" y="-100" as="sourcePoint" />
            <mxPoint x="883" y="-10" as="targetPoint" />
          </mxGeometry>
        </mxCell>
        <mxCell id="OmzKmfgAjD7RHGHbsQaT-116" value="" style="verticalLabelPosition=bottom;shadow=0;dashed=0;align=center;html=1;verticalAlign=top;shape=mxgraph.electrical.logic_gates.logic_gate;operation=and;negating=1;negSize=0.15;strokeWidth=3;direction=south;" vertex="1" parent="1">
          <mxGeometry x="911" y="-120" width="60" height="100" as="geometry" />
        </mxCell>
        <mxCell id="OmzKmfgAjD7RHGHbsQaT-117" value="" style="endArrow=none;html=1;rounded=0;strokeWidth=3;entryX=0;entryY=0.25;entryDx=0;entryDy=0;entryPerimeter=0;edgeStyle=orthogonalEdgeStyle;exitX=1;exitY=0.5;exitDx=0;exitDy=0;exitPerimeter=0;" edge="1" parent="1" source="OmzKmfgAjD7RHGHbsQaT-116" target="OmzKmfgAjD7RHGHbsQaT-113">
          <mxGeometry width="50" height="50" relative="1" as="geometry">
            <mxPoint x="860" y="-90" as="sourcePoint" />
            <mxPoint x="860" as="targetPoint" />
          </mxGeometry>
        </mxCell>
        <mxCell id="OmzKmfgAjD7RHGHbsQaT-118" value="" style="verticalLabelPosition=bottom;shadow=0;dashed=0;align=center;html=1;verticalAlign=top;shape=mxgraph.electrical.logic_gates.logic_gate;operation=and;negating=1;negSize=0.15;strokeWidth=3;direction=south;" vertex="1" parent="1">
          <mxGeometry x="990" y="-4" width="60" height="100" as="geometry" />
        </mxCell>
        <mxCell id="OmzKmfgAjD7RHGHbsQaT-119" value="" style="endArrow=none;html=1;rounded=0;strokeWidth=3;edgeStyle=orthogonalEdgeStyle;exitX=0;exitY=0.75;exitDx=0;exitDy=0;exitPerimeter=0;" edge="1" parent="1" source="OmzKmfgAjD7RHGHbsQaT-118">
          <mxGeometry width="50" height="50" relative="1" as="geometry">
            <mxPoint x="995" y="-1" as="sourcePoint" />
            <mxPoint x="935" y="-10" as="targetPoint" />
            <Array as="points">
              <mxPoint x="1005" y="-10" />
            </Array>
          </mxGeometry>
        </mxCell>
        <mxCell id="OmzKmfgAjD7RHGHbsQaT-120" value="" style="verticalLabelPosition=bottom;shadow=0;dashed=0;align=center;html=1;verticalAlign=top;shape=mxgraph.electrical.logic_gates.logic_gate;operation=xor;negating=1;negSize=0.15;strokeWidth=3;direction=south;" vertex="1" parent="1">
          <mxGeometry x="1005" y="223" width="60" height="100" as="geometry" />
        </mxCell>
        <mxCell id="OmzKmfgAjD7RHGHbsQaT-121" value="" style="endArrow=none;html=1;rounded=0;strokeWidth=3;entryX=0;entryY=0.75;entryDx=0;entryDy=0;entryPerimeter=0;edgeStyle=orthogonalEdgeStyle;exitX=1;exitY=0.5;exitDx=0;exitDy=0;exitPerimeter=0;" edge="1" parent="1" source="OmzKmfgAjD7RHGHbsQaT-118" target="OmzKmfgAjD7RHGHbsQaT-120">
          <mxGeometry width="50" height="50" relative="1" as="geometry">
            <mxPoint x="1000" y="80" as="sourcePoint" />
            <mxPoint x="1000" y="320" as="targetPoint" />
          </mxGeometry>
        </mxCell>
        <mxCell id="OmzKmfgAjD7RHGHbsQaT-122" value="" style="endArrow=none;html=1;rounded=0;strokeWidth=3;" edge="1" parent="1">
          <mxGeometry width="50" height="50" relative="1" as="geometry">
            <mxPoint x="763.5" y="99" as="sourcePoint" />
            <mxPoint x="866.5" y="99" as="targetPoint" />
          </mxGeometry>
        </mxCell>
        <mxCell id="OmzKmfgAjD7RHGHbsQaT-123" value="" style="verticalLabelPosition=bottom;shadow=0;dashed=0;align=center;html=1;verticalAlign=top;shape=mxgraph.electrical.logic_gates.logic_gate;operation=and;negating=1;negSize=0.15;strokeWidth=3;direction=south;" vertex="1" parent="1">
          <mxGeometry x="1032" y="110" width="60" height="100" as="geometry" />
        </mxCell>
        <mxCell id="OmzKmfgAjD7RHGHbsQaT-124" value="" style="endArrow=none;html=1;rounded=0;strokeWidth=3;edgeStyle=orthogonalEdgeStyle;exitX=0;exitY=0.75;exitDx=0;exitDy=0;exitPerimeter=0;" edge="1" parent="1" source="OmzKmfgAjD7RHGHbsQaT-123">
          <mxGeometry width="50" height="50" relative="1" as="geometry">
            <mxPoint x="1064.99" y="110" as="sourcePoint" />
            <mxPoint x="1019.99" y="94" as="targetPoint" />
            <Array as="points">
              <mxPoint x="1047" y="101" />
              <mxPoint x="1020" y="101" />
            </Array>
          </mxGeometry>
        </mxCell>
        <mxCell id="OmzKmfgAjD7RHGHbsQaT-125" value="" style="verticalLabelPosition=bottom;shadow=0;dashed=0;align=center;html=1;verticalAlign=top;shape=mxgraph.electrical.logic_gates.logic_gate;operation=xor;negating=1;negSize=0.15;strokeWidth=3;direction=south;" vertex="1" parent="1">
          <mxGeometry x="1047" y="-120" width="60" height="100" as="geometry" />
        </mxCell>
        <mxCell id="OmzKmfgAjD7RHGHbsQaT-126" value="" style="verticalLabelPosition=bottom;shadow=0;dashed=0;align=center;html=1;verticalAlign=top;shape=mxgraph.electrical.logic_gates.logic_gate;operation=xor;negating=1;negSize=0.15;strokeWidth=3;direction=south;" vertex="1" parent="1">
          <mxGeometry x="1143" y="-120" width="60" height="100" as="geometry" />
        </mxCell>
        <mxCell id="OmzKmfgAjD7RHGHbsQaT-127" value="" style="endArrow=none;html=1;rounded=0;strokeWidth=3;entryX=0;entryY=0.25;entryDx=0;entryDy=0;entryPerimeter=0;edgeStyle=orthogonalEdgeStyle;" edge="1" parent="1" target="OmzKmfgAjD7RHGHbsQaT-123">
          <mxGeometry width="50" height="50" relative="1" as="geometry">
            <mxPoint x="1077" y="-20" as="sourcePoint" />
            <mxPoint x="1076.71" y="110" as="targetPoint" />
          </mxGeometry>
        </mxCell>
        <mxCell id="OmzKmfgAjD7RHGHbsQaT-128" value="" style="verticalLabelPosition=bottom;shadow=0;dashed=0;align=center;html=1;verticalAlign=top;shape=mxgraph.electrical.logic_gates.logic_gate;operation=xor;negating=1;negSize=0.15;strokeWidth=3;direction=south;" vertex="1" parent="1">
          <mxGeometry x="1128" y="1" width="60" height="100" as="geometry" />
        </mxCell>
        <mxCell id="OmzKmfgAjD7RHGHbsQaT-129" value="" style="endArrow=none;html=1;rounded=0;strokeWidth=3;exitX=1;exitY=0.5;exitDx=0;exitDy=0;exitPerimeter=0;entryX=0.09;entryY=0.25;entryDx=0;entryDy=0;entryPerimeter=0;" edge="1" parent="1" source="OmzKmfgAjD7RHGHbsQaT-126" target="OmzKmfgAjD7RHGHbsQaT-128">
          <mxGeometry width="50" height="50" relative="1" as="geometry">
            <mxPoint x="1068" y="-10" as="sourcePoint" />
            <mxPoint x="1173" as="targetPoint" />
          </mxGeometry>
        </mxCell>
        <mxCell id="OmzKmfgAjD7RHGHbsQaT-130" value="" style="endArrow=none;html=1;rounded=0;strokeWidth=3;edgeStyle=orthogonalEdgeStyle;exitX=0;exitY=0.75;exitDx=0;exitDy=0;exitPerimeter=0;entryX=0;entryY=0.25;entryDx=0;entryDy=0;entryPerimeter=0;" edge="1" parent="1" source="OmzKmfgAjD7RHGHbsQaT-128" target="OmzKmfgAjD7RHGHbsQaT-118">
          <mxGeometry width="50" height="50" relative="1" as="geometry">
            <mxPoint x="1124.99" y="-14" as="sourcePoint" />
            <mxPoint x="1079.99" y="-30" as="targetPoint" />
            <Array as="points">
              <mxPoint x="1143" y="-10" />
              <mxPoint x="1035" y="-10" />
            </Array>
          </mxGeometry>
        </mxCell>
        <mxCell id="OmzKmfgAjD7RHGHbsQaT-131" value="" style="endArrow=none;html=1;rounded=0;strokeWidth=3;exitX=0.986;exitY=0.5;exitDx=0;exitDy=0;exitPerimeter=0;" edge="1" parent="1" source="OmzKmfgAjD7RHGHbsQaT-128">
          <mxGeometry width="50" height="50" relative="1" as="geometry">
            <mxPoint x="1157.71" y="101" as="sourcePoint" />
            <mxPoint x="1158" y="170" as="targetPoint" />
          </mxGeometry>
        </mxCell>
        <mxCell id="OmzKmfgAjD7RHGHbsQaT-132" value="" style="endArrow=none;html=1;rounded=0;strokeWidth=3;edgeStyle=orthogonalEdgeStyle;exitX=0;exitY=0.75;exitDx=0;exitDy=0;exitPerimeter=0;entryX=0;entryY=0.25;entryDx=0;entryDy=0;entryPerimeter=0;" edge="1" parent="1" source="OmzKmfgAjD7RHGHbsQaT-126">
          <mxGeometry width="50" height="50" relative="1" as="geometry">
            <mxPoint x="1237" y="-115" as="sourcePoint" />
            <mxPoint x="1092" y="-120" as="targetPoint" />
            <Array as="points">
              <mxPoint x="1158" y="-126" />
              <mxPoint x="1092" y="-126" />
            </Array>
          </mxGeometry>
        </mxCell>
        <mxCell id="OmzKmfgAjD7RHGHbsQaT-133" value="" style="endArrow=none;html=1;rounded=0;strokeWidth=3;entryX=0.09;entryY=0.25;entryDx=0;entryDy=0;entryPerimeter=0;" edge="1" parent="1">
          <mxGeometry width="50" height="50" relative="1" as="geometry">
            <mxPoint x="1133" y="-140" as="sourcePoint" />
            <mxPoint x="1133" y="-125" as="targetPoint" />
          </mxGeometry>
        </mxCell>
        <mxCell id="OmzKmfgAjD7RHGHbsQaT-134" value="" style="endArrow=none;html=1;rounded=0;strokeWidth=3;entryX=0.09;entryY=0.25;entryDx=0;entryDy=0;entryPerimeter=0;" edge="1" parent="1">
          <mxGeometry width="50" height="50" relative="1" as="geometry">
            <mxPoint x="1062" y="-140" as="sourcePoint" />
            <mxPoint x="1061.92" y="-120" as="targetPoint" />
          </mxGeometry>
        </mxCell>
        <mxCell id="OmzKmfgAjD7RHGHbsQaT-135" value="" style="endArrow=none;html=1;rounded=0;strokeWidth=3;entryX=0.09;entryY=0.25;entryDx=0;entryDy=0;entryPerimeter=0;" edge="1" parent="1">
          <mxGeometry width="50" height="50" relative="1" as="geometry">
            <mxPoint x="1188.08" y="-140" as="sourcePoint" />
            <mxPoint x="1188" y="-120" as="targetPoint" />
          </mxGeometry>
        </mxCell>
        <mxCell id="OmzKmfgAjD7RHGHbsQaT-136" value="" style="endArrow=none;html=1;rounded=0;strokeWidth=3;entryX=0.09;entryY=0.25;entryDx=0;entryDy=0;entryPerimeter=0;" edge="1" parent="1">
          <mxGeometry width="50" height="50" relative="1" as="geometry">
            <mxPoint x="926.0799999999999" y="-140" as="sourcePoint" />
            <mxPoint x="926" y="-120" as="targetPoint" />
          </mxGeometry>
        </mxCell>
        <mxCell id="OmzKmfgAjD7RHGHbsQaT-137" value="" style="endArrow=none;html=1;rounded=0;strokeWidth=3;entryX=0.09;entryY=0.25;entryDx=0;entryDy=0;entryPerimeter=0;" edge="1" parent="1">
          <mxGeometry width="50" height="50" relative="1" as="geometry">
            <mxPoint x="956.0799999999999" y="-140" as="sourcePoint" />
            <mxPoint x="956" y="-120" as="targetPoint" />
          </mxGeometry>
        </mxCell>
        <mxCell id="OmzKmfgAjD7RHGHbsQaT-138" value="" style="endArrow=none;html=1;rounded=0;strokeWidth=3;entryX=0.09;entryY=0.25;entryDx=0;entryDy=0;entryPerimeter=0;" edge="1" parent="1">
          <mxGeometry width="50" height="50" relative="1" as="geometry">
            <mxPoint x="888" y="-140" as="sourcePoint" />
            <mxPoint x="888" y="-100" as="targetPoint" />
          </mxGeometry>
        </mxCell>
        <mxCell id="OmzKmfgAjD7RHGHbsQaT-139" value="" style="endArrow=none;html=1;rounded=0;strokeWidth=3;" edge="1" parent="1">
          <mxGeometry width="50" height="50" relative="1" as="geometry">
            <mxPoint x="902.95" y="100" as="sourcePoint" />
            <mxPoint x="902.95" y="90" as="targetPoint" />
            <Array as="points">
              <mxPoint x="902.95" y="100" />
            </Array>
          </mxGeometry>
        </mxCell>
        <mxCell id="OmzKmfgAjD7RHGHbsQaT-140" value="" style="endArrow=none;html=1;rounded=0;strokeWidth=3;edgeStyle=orthogonalEdgeStyle;exitX=1;exitY=0.5;exitDx=0;exitDy=0;exitPerimeter=0;entryX=0;entryY=0.25;entryDx=0;entryDy=0;entryPerimeter=0;" edge="1" parent="1" source="OmzKmfgAjD7RHGHbsQaT-123" target="OmzKmfgAjD7RHGHbsQaT-120">
          <mxGeometry width="50" height="50" relative="1" as="geometry">
            <mxPoint x="1077.01" y="230" as="sourcePoint" />
            <mxPoint x="1050" y="214" as="targetPoint" />
            <Array as="points">
              <mxPoint x="1062" y="221" />
              <mxPoint x="1050" y="221" />
            </Array>
          </mxGeometry>
        </mxCell>
        <mxCell id="OmzKmfgAjD7RHGHbsQaT-141" value="" style="endArrow=none;html=1;rounded=0;strokeWidth=3;" edge="1" parent="1">
          <mxGeometry width="50" height="50" relative="1" as="geometry">
            <mxPoint x="748.5" y="210" as="sourcePoint" />
            <mxPoint x="795.5" y="210" as="targetPoint" />
          </mxGeometry>
        </mxCell>
        <mxCell id="OmzKmfgAjD7RHGHbsQaT-142" value="" style="endArrow=none;html=1;rounded=0;strokeWidth=3;" edge="1" parent="1">
          <mxGeometry width="50" height="50" relative="1" as="geometry">
            <mxPoint x="822.5" y="210" as="sourcePoint" />
            <mxPoint x="882.5" y="210" as="targetPoint" />
          </mxGeometry>
        </mxCell>
        <mxCell id="OmzKmfgAjD7RHGHbsQaT-143" value="" style="endArrow=none;html=1;rounded=0;strokeWidth=3;" edge="1" parent="1">
          <mxGeometry width="50" height="50" relative="1" as="geometry">
            <mxPoint x="749.9300000000001" y="200" as="sourcePoint" />
            <mxPoint x="749.9300000000001" y="210" as="targetPoint" />
          </mxGeometry>
        </mxCell>
        <mxCell id="OmzKmfgAjD7RHGHbsQaT-144" value="" style="endArrow=none;html=1;rounded=0;strokeWidth=3;entryX=0;entryY=0.75;entryDx=0;entryDy=0;entryPerimeter=0;" edge="1" parent="1" target="OmzKmfgAjD7RHGHbsQaT-109">
          <mxGeometry width="50" height="50" relative="1" as="geometry">
            <mxPoint x="794" y="210" as="sourcePoint" />
            <mxPoint x="801.9000000000001" y="223.5" as="targetPoint" />
          </mxGeometry>
        </mxCell>
        <mxCell id="OmzKmfgAjD7RHGHbsQaT-145" value="" style="endArrow=none;html=1;rounded=0;strokeWidth=3;entryX=0;entryY=0.75;entryDx=0;entryDy=0;entryPerimeter=0;" edge="1" parent="1">
          <mxGeometry width="50" height="50" relative="1" as="geometry">
            <mxPoint x="824" y="210" as="sourcePoint" />
            <mxPoint x="824" y="223.5" as="targetPoint" />
          </mxGeometry>
        </mxCell>
        <mxCell id="OmzKmfgAjD7RHGHbsQaT-146" value="" style="endArrow=none;html=1;rounded=0;strokeWidth=3;entryX=0;entryY=0.75;entryDx=0;entryDy=0;entryPerimeter=0;" edge="1" parent="1">
          <mxGeometry width="50" height="50" relative="1" as="geometry">
            <mxPoint x="880.94" y="196.5" as="sourcePoint" />
            <mxPoint x="880.94" y="210" as="targetPoint" />
          </mxGeometry>
        </mxCell>
        <mxCell id="OmzKmfgAjD7RHGHbsQaT-147" value="" style="endArrow=none;html=1;rounded=0;strokeWidth=3;entryX=0;entryY=0.75;entryDx=0;entryDy=0;entryPerimeter=0;" edge="1" parent="1">
          <mxGeometry width="50" height="50" relative="1" as="geometry">
            <mxPoint x="1035" y="317" as="sourcePoint" />
            <mxPoint x="1035" y="329" as="targetPoint" />
          </mxGeometry>
        </mxCell>
        <mxCell id="OmzKmfgAjD7RHGHbsQaT-152" value="" style="endArrow=none;html=1;rounded=0;strokeWidth=3;entryX=0.5;entryY=0;entryDx=0;entryDy=0;" edge="1" parent="1" target="OmzKmfgAjD7RHGHbsQaT-149">
          <mxGeometry width="50" height="50" relative="1" as="geometry">
            <mxPoint x="809" y="317" as="sourcePoint" />
            <mxPoint x="809" y="329" as="targetPoint" />
          </mxGeometry>
        </mxCell>
        <mxCell id="OmzKmfgAjD7RHGHbsQaT-149" value="" style="ellipse;whiteSpace=wrap;html=1;aspect=fixed;strokeColor=#B20000;fillColor=#e51400;fontColor=#ffffff;" vertex="1" parent="1">
          <mxGeometry x="803" y="328" width="12" height="12" as="geometry" />
        </mxCell>
        <mxCell id="OmzKmfgAjD7RHGHbsQaT-153" value="" style="ellipse;whiteSpace=wrap;html=1;aspect=fixed;strokeColor=#B20000;fillColor=#e51400;fontColor=#ffffff;" vertex="1" parent="1">
          <mxGeometry x="1029" y="328" width="12" height="12" as="geometry" />
        </mxCell>
        <mxCell id="OmzKmfgAjD7RHGHbsQaT-154" value="&lt;font style=&quot;font-size: 30px;&quot; face=&quot;Times New Roman&quot;&gt;&lt;b style=&quot;&quot;&gt;1.&amp;nbsp;&lt;/b&gt;&lt;/font&gt;&lt;font face=&quot;Times New Roman&quot;&gt;&lt;span style=&quot;font-size: 30px;&quot;&gt;&lt;b&gt;Compute MFFC for a Primary Output&lt;/b&gt;&lt;/span&gt;&lt;/font&gt;" style="text;html=1;align=center;verticalAlign=middle;whiteSpace=wrap;rounded=0;" vertex="1" parent="1">
          <mxGeometry x="700" y="388" width="530" height="30" as="geometry" />
        </mxCell>
        <mxCell id="OmzKmfgAjD7RHGHbsQaT-155" value="&lt;font style=&quot;font-size: 30px;&quot; face=&quot;Times New Roman&quot;&gt;&lt;b style=&quot;&quot;&gt;PO1&lt;/b&gt;&lt;/font&gt;" style="text;html=1;align=center;verticalAlign=middle;whiteSpace=wrap;rounded=0;" vertex="1" parent="1">
          <mxGeometry x="765" y="343" width="93" height="20" as="geometry" />
        </mxCell>
        <mxCell id="OmzKmfgAjD7RHGHbsQaT-156" value="&lt;font style=&quot;font-size: 30px;&quot; face=&quot;Times New Roman&quot;&gt;&lt;b style=&quot;&quot;&gt;PO2&lt;/b&gt;&lt;/font&gt;" style="text;html=1;align=center;verticalAlign=middle;whiteSpace=wrap;rounded=0;" vertex="1" parent="1">
          <mxGeometry x="990" y="343" width="93" height="20" as="geometry" />
        </mxCell>
        <mxCell id="OmzKmfgAjD7RHGHbsQaT-160" value="&lt;font style=&quot;font-size: 23px;&quot; face=&quot;Times New Roman&quot;&gt;&lt;b&gt;PO3&lt;/b&gt;&lt;/font&gt;" style="text;html=1;align=center;verticalAlign=middle;whiteSpace=wrap;rounded=0;" vertex="1" parent="1">
          <mxGeometry x="1110" y="190" width="93" height="20" as="geometry" />
        </mxCell>
        <mxCell id="OmzKmfgAjD7RHGHbsQaT-161" value="" style="ellipse;whiteSpace=wrap;html=1;aspect=fixed;strokeColor=#B20000;fillColor=#e51400;fontColor=#ffffff;" vertex="1" parent="1">
          <mxGeometry x="1152" y="170" width="12" height="12" as="geometry" />
        </mxCell>
        <mxCell id="OmzKmfgAjD7RHGHbsQaT-217" value="" style="rounded=0;whiteSpace=wrap;html=1;dashed=1;strokeWidth=2;fillColor=#f5f5f5;strokeColor=#C9C9C9;shadow=1;fontColor=#333333;" vertex="1" parent="1">
          <mxGeometry x="1765" y="-111" width="100" height="230" as="geometry" />
        </mxCell>
        <mxCell id="OmzKmfgAjD7RHGHbsQaT-218" value="" style="rounded=0;whiteSpace=wrap;html=1;dashed=1;strokeWidth=2;fillColor=#f5f5f5;strokeColor=#C9C9C9;shadow=1;fontColor=#333333;" vertex="1" parent="1">
          <mxGeometry x="1609" y="-3" width="140" height="324" as="geometry" />
        </mxCell>
        <mxCell id="OmzKmfgAjD7RHGHbsQaT-219" value="" style="rounded=0;whiteSpace=wrap;html=1;dashed=1;strokeWidth=2;fillColor=#f5f5f5;strokeColor=#C9C9C9;shadow=1;fontColor=#333333;" vertex="1" parent="1">
          <mxGeometry x="1342" y="-3" width="250" height="324" as="geometry" />
        </mxCell>
        <mxCell id="OmzKmfgAjD7RHGHbsQaT-222" value="" style="endArrow=none;html=1;rounded=0;strokeWidth=3;entryX=0;entryY=0.75;entryDx=0;entryDy=0;entryPerimeter=0;strokeColor=light-dark(#c9c9c9, #ededed);" edge="1" parent="1">
          <mxGeometry width="50" height="50" relative="1" as="geometry">
            <mxPoint x="1451" y="327" as="sourcePoint" />
            <mxPoint x="1451" y="328" as="targetPoint" />
          </mxGeometry>
        </mxCell>
        <mxCell id="OmzKmfgAjD7RHGHbsQaT-223" value="" style="verticalLabelPosition=bottom;shadow=0;dashed=0;align=center;html=1;verticalAlign=top;shape=mxgraph.electrical.logic_gates.logic_gate;operation=xor;negating=1;negSize=0.15;strokeWidth=3;direction=south;strokeColor=light-dark(#c9c9c9, #ededed);" vertex="1" parent="1">
          <mxGeometry x="1493" y="99" width="60" height="100" as="geometry" />
        </mxCell>
        <mxCell id="OmzKmfgAjD7RHGHbsQaT-224" value="" style="verticalLabelPosition=bottom;shadow=0;dashed=0;align=center;html=1;verticalAlign=top;shape=mxgraph.electrical.logic_gates.logic_gate;operation=and;negating=1;negSize=0.15;strokeWidth=3;direction=south;strokeColor=light-dark(#c9c9c9, #ededed);" vertex="1" parent="1">
          <mxGeometry x="1362" y="99" width="60" height="100" as="geometry" />
        </mxCell>
        <mxCell id="OmzKmfgAjD7RHGHbsQaT-225" value="" style="verticalLabelPosition=bottom;shadow=0;dashed=0;align=center;html=1;verticalAlign=top;shape=mxgraph.electrical.logic_gates.logic_gate;operation=and;negating=1;negSize=0.15;strokeWidth=3;direction=south;strokeColor=light-dark(#c9c9c9, #ededed);" vertex="1" parent="1">
          <mxGeometry x="1414" y="-7" width="60" height="100" as="geometry" />
        </mxCell>
        <mxCell id="OmzKmfgAjD7RHGHbsQaT-226" value="" style="endArrow=none;html=1;rounded=0;entryX=1;entryY=0.5;entryDx=0;entryDy=0;entryPerimeter=0;strokeWidth=3;strokeColor=light-dark(#c9c9c9, #ededed);" edge="1" parent="1" target="OmzKmfgAjD7RHGHbsQaT-225">
          <mxGeometry width="50" height="50" relative="1" as="geometry">
            <mxPoint x="1444" y="99" as="sourcePoint" />
            <mxPoint x="1444" y="188" as="targetPoint" />
          </mxGeometry>
        </mxCell>
        <mxCell id="OmzKmfgAjD7RHGHbsQaT-227" value="" style="verticalLabelPosition=bottom;shadow=0;dashed=0;align=center;html=1;verticalAlign=top;shape=mxgraph.electrical.logic_gates.logic_gate;operation=xor;negating=1;negSize=0.15;strokeWidth=3;direction=south;strokeColor=light-dark(#c9c9c9, #ededed);" vertex="1" parent="1">
          <mxGeometry x="1421" y="221" width="60" height="100" as="geometry" />
        </mxCell>
        <mxCell id="OmzKmfgAjD7RHGHbsQaT-228" value="" style="endArrow=none;html=1;rounded=0;strokeWidth=3;entryX=0;entryY=0.75;entryDx=0;entryDy=0;entryPerimeter=0;edgeStyle=orthogonalEdgeStyle;strokeColor=light-dark(#c9c9c9, #ededed);" edge="1" parent="1" target="OmzKmfgAjD7RHGHbsQaT-224">
          <mxGeometry width="50" height="50" relative="1" as="geometry">
            <mxPoint x="1377" y="-141" as="sourcePoint" />
            <mxPoint x="1353" y="97" as="targetPoint" />
            <Array as="points">
              <mxPoint x="1377" y="-133" />
            </Array>
          </mxGeometry>
        </mxCell>
        <mxCell id="OmzKmfgAjD7RHGHbsQaT-229" value="" style="endArrow=none;html=1;rounded=0;strokeWidth=3;entryX=0;entryY=0.75;entryDx=0;entryDy=0;entryPerimeter=0;edgeStyle=orthogonalEdgeStyle;strokeColor=#C9C9C9;" edge="1" parent="1" target="OmzKmfgAjD7RHGHbsQaT-225">
          <mxGeometry width="50" height="50" relative="1" as="geometry">
            <mxPoint x="1429" y="-141" as="sourcePoint" />
            <mxPoint x="1434" y="-22" as="targetPoint" />
          </mxGeometry>
        </mxCell>
        <mxCell id="OmzKmfgAjD7RHGHbsQaT-230" value="" style="endArrow=none;html=1;rounded=0;strokeWidth=3;entryX=0;entryY=0.25;entryDx=0;entryDy=0;entryPerimeter=0;edgeStyle=orthogonalEdgeStyle;strokeColor=#C9C9C9;" edge="1" parent="1" target="OmzKmfgAjD7RHGHbsQaT-225">
          <mxGeometry width="50" height="50" relative="1" as="geometry">
            <mxPoint x="1459" y="-141" as="sourcePoint" />
            <mxPoint x="1439" y="8" as="targetPoint" />
          </mxGeometry>
        </mxCell>
        <mxCell id="OmzKmfgAjD7RHGHbsQaT-231" value="" style="verticalLabelPosition=bottom;shadow=0;dashed=0;align=center;html=1;verticalAlign=top;shape=mxgraph.electrical.logic_gates.logic_gate;operation=and;negating=1;negSize=0.15;strokeWidth=3;direction=south;strokeColor=light-dark(#c9c9c9, #ededed);" vertex="1" parent="1">
          <mxGeometry x="1515" y="-6" width="60" height="100" as="geometry" />
        </mxCell>
        <mxCell id="OmzKmfgAjD7RHGHbsQaT-232" value="" style="endArrow=none;html=1;rounded=0;strokeWidth=3;strokeColor=light-dark(#c9c9c9, #ededed);" edge="1" parent="1">
          <mxGeometry width="50" height="50" relative="1" as="geometry">
            <mxPoint x="1546.5" y="99" as="sourcePoint" />
            <mxPoint x="1537" y="99" as="targetPoint" />
          </mxGeometry>
        </mxCell>
        <mxCell id="OmzKmfgAjD7RHGHbsQaT-233" value="" style="endArrow=none;html=1;rounded=0;strokeWidth=3;entryX=0;entryY=0.75;entryDx=0;entryDy=0;entryPerimeter=0;edgeStyle=orthogonalEdgeStyle;strokeColor=#C9C9C9;" edge="1" parent="1" target="OmzKmfgAjD7RHGHbsQaT-231">
          <mxGeometry width="50" height="50" relative="1" as="geometry">
            <mxPoint x="1530" y="-101" as="sourcePoint" />
            <mxPoint x="1525" y="-11" as="targetPoint" />
          </mxGeometry>
        </mxCell>
        <mxCell id="OmzKmfgAjD7RHGHbsQaT-234" value="" style="verticalLabelPosition=bottom;shadow=0;dashed=0;align=center;html=1;verticalAlign=top;shape=mxgraph.electrical.logic_gates.logic_gate;operation=and;negating=1;negSize=0.15;strokeWidth=3;direction=south;" vertex="1" parent="1">
          <mxGeometry x="1553" y="-121" width="60" height="100" as="geometry" />
        </mxCell>
        <mxCell id="OmzKmfgAjD7RHGHbsQaT-235" value="" style="endArrow=none;html=1;rounded=0;strokeWidth=3;entryX=0;entryY=0.25;entryDx=0;entryDy=0;entryPerimeter=0;edgeStyle=orthogonalEdgeStyle;exitX=0;exitY=0.5;exitDx=0;exitDy=0;strokeColor=#C9C9C9;" edge="1" parent="1" source="OmzKmfgAjD7RHGHbsQaT-275" target="OmzKmfgAjD7RHGHbsQaT-231">
          <mxGeometry width="50" height="50" relative="1" as="geometry">
            <mxPoint x="1576" y="-10" as="sourcePoint" />
            <mxPoint x="1502" y="-1" as="targetPoint" />
          </mxGeometry>
        </mxCell>
        <mxCell id="OmzKmfgAjD7RHGHbsQaT-236" value="" style="verticalLabelPosition=bottom;shadow=0;dashed=0;align=center;html=1;verticalAlign=top;shape=mxgraph.electrical.logic_gates.logic_gate;operation=and;negating=1;negSize=0.15;strokeWidth=3;direction=south;strokeColor=light-dark(#c9c9c9, #ededed);" vertex="1" parent="1">
          <mxGeometry x="1632" y="-5" width="60" height="100" as="geometry" />
        </mxCell>
        <mxCell id="OmzKmfgAjD7RHGHbsQaT-238" value="" style="verticalLabelPosition=bottom;shadow=0;dashed=0;align=center;html=1;verticalAlign=top;shape=mxgraph.electrical.logic_gates.logic_gate;operation=xor;negating=1;negSize=0.15;strokeWidth=3;direction=south;strokeColor=light-dark(#c9c9c9, #ededed);" vertex="1" parent="1">
          <mxGeometry x="1647" y="222" width="60" height="100" as="geometry" />
        </mxCell>
        <mxCell id="OmzKmfgAjD7RHGHbsQaT-239" value="" style="endArrow=none;html=1;rounded=0;strokeWidth=3;entryX=0;entryY=0.75;entryDx=0;entryDy=0;entryPerimeter=0;edgeStyle=orthogonalEdgeStyle;exitX=1;exitY=0.5;exitDx=0;exitDy=0;exitPerimeter=0;strokeColor=light-dark(#c9c9c9, #ededed);" edge="1" parent="1" source="OmzKmfgAjD7RHGHbsQaT-236" target="OmzKmfgAjD7RHGHbsQaT-238">
          <mxGeometry width="50" height="50" relative="1" as="geometry">
            <mxPoint x="1642" y="79" as="sourcePoint" />
            <mxPoint x="1642" y="319" as="targetPoint" />
          </mxGeometry>
        </mxCell>
        <mxCell id="OmzKmfgAjD7RHGHbsQaT-240" value="" style="endArrow=none;html=1;rounded=0;strokeWidth=3;strokeColor=light-dark(#c9c9c9, #ededed);" edge="1" parent="1">
          <mxGeometry width="50" height="50" relative="1" as="geometry">
            <mxPoint x="1405.5" y="98" as="sourcePoint" />
            <mxPoint x="1508.5" y="98" as="targetPoint" />
          </mxGeometry>
        </mxCell>
        <mxCell id="OmzKmfgAjD7RHGHbsQaT-241" value="" style="verticalLabelPosition=bottom;shadow=0;dashed=0;align=center;html=1;verticalAlign=top;shape=mxgraph.electrical.logic_gates.logic_gate;operation=and;negating=1;negSize=0.15;strokeWidth=3;direction=south;strokeColor=light-dark(#c9c9c9, #ededed);" vertex="1" parent="1">
          <mxGeometry x="1674" y="109" width="60" height="100" as="geometry" />
        </mxCell>
        <mxCell id="OmzKmfgAjD7RHGHbsQaT-242" value="" style="endArrow=none;html=1;rounded=0;strokeWidth=3;edgeStyle=orthogonalEdgeStyle;exitX=0;exitY=0.75;exitDx=0;exitDy=0;exitPerimeter=0;strokeColor=light-dark(#c9c9c9, #ededed);" edge="1" parent="1" source="OmzKmfgAjD7RHGHbsQaT-241">
          <mxGeometry width="50" height="50" relative="1" as="geometry">
            <mxPoint x="1706.99" y="109" as="sourcePoint" />
            <mxPoint x="1661.99" y="93" as="targetPoint" />
            <Array as="points">
              <mxPoint x="1689" y="100" />
              <mxPoint x="1662" y="100" />
            </Array>
          </mxGeometry>
        </mxCell>
        <mxCell id="OmzKmfgAjD7RHGHbsQaT-243" value="" style="verticalLabelPosition=bottom;shadow=0;dashed=0;align=center;html=1;verticalAlign=top;shape=mxgraph.electrical.logic_gates.logic_gate;operation=xor;negating=1;negSize=0.15;strokeWidth=3;direction=south;" vertex="1" parent="1">
          <mxGeometry x="1689" y="-121" width="60" height="100" as="geometry" />
        </mxCell>
        <mxCell id="OmzKmfgAjD7RHGHbsQaT-244" value="" style="verticalLabelPosition=bottom;shadow=0;dashed=0;align=center;html=1;verticalAlign=top;shape=mxgraph.electrical.logic_gates.logic_gate;operation=xor;negating=1;negSize=0.15;strokeWidth=3;direction=south;strokeColor=light-dark(#c9c9c9, #ededed);" vertex="1" parent="1">
          <mxGeometry x="1785" y="-121" width="60" height="100" as="geometry" />
        </mxCell>
        <mxCell id="OmzKmfgAjD7RHGHbsQaT-245" value="" style="endArrow=none;html=1;rounded=0;strokeWidth=3;entryX=0;entryY=0.25;entryDx=0;entryDy=0;entryPerimeter=0;edgeStyle=orthogonalEdgeStyle;strokeColor=#C9C9C9;" edge="1" parent="1" target="OmzKmfgAjD7RHGHbsQaT-241" source="OmzKmfgAjD7RHGHbsQaT-283">
          <mxGeometry width="50" height="50" relative="1" as="geometry">
            <mxPoint x="1719" y="-21" as="sourcePoint" />
            <mxPoint x="1718.71" y="109" as="targetPoint" />
          </mxGeometry>
        </mxCell>
        <mxCell id="OmzKmfgAjD7RHGHbsQaT-246" value="" style="verticalLabelPosition=bottom;shadow=0;dashed=0;align=center;html=1;verticalAlign=top;shape=mxgraph.electrical.logic_gates.logic_gate;operation=xor;negating=1;negSize=0.15;strokeWidth=3;direction=south;strokeColor=light-dark(#c9c9c9, #ededed);" vertex="1" parent="1">
          <mxGeometry x="1770" width="60" height="100" as="geometry" />
        </mxCell>
        <mxCell id="OmzKmfgAjD7RHGHbsQaT-247" value="" style="endArrow=none;html=1;rounded=0;strokeWidth=3;exitX=1;exitY=0.5;exitDx=0;exitDy=0;exitPerimeter=0;entryX=0.09;entryY=0.25;entryDx=0;entryDy=0;entryPerimeter=0;strokeColor=#C9C9C9;" edge="1" parent="1" source="OmzKmfgAjD7RHGHbsQaT-244" target="OmzKmfgAjD7RHGHbsQaT-246">
          <mxGeometry width="50" height="50" relative="1" as="geometry">
            <mxPoint x="1710" y="-11" as="sourcePoint" />
            <mxPoint x="1815" y="-1" as="targetPoint" />
          </mxGeometry>
        </mxCell>
        <mxCell id="OmzKmfgAjD7RHGHbsQaT-248" value="" style="endArrow=none;html=1;rounded=0;strokeWidth=3;edgeStyle=orthogonalEdgeStyle;exitX=0;exitY=0.75;exitDx=0;exitDy=0;exitPerimeter=0;entryX=0;entryY=0.25;entryDx=0;entryDy=0;entryPerimeter=0;strokeColor=#C9C9C9;" edge="1" parent="1" source="OmzKmfgAjD7RHGHbsQaT-246" target="OmzKmfgAjD7RHGHbsQaT-236">
          <mxGeometry width="50" height="50" relative="1" as="geometry">
            <mxPoint x="1766.99" y="-15" as="sourcePoint" />
            <mxPoint x="1721.99" y="-31" as="targetPoint" />
            <Array as="points">
              <mxPoint x="1785" y="-11" />
              <mxPoint x="1677" y="-11" />
            </Array>
          </mxGeometry>
        </mxCell>
        <mxCell id="OmzKmfgAjD7RHGHbsQaT-249" value="" style="endArrow=none;html=1;rounded=0;strokeWidth=3;exitX=0.986;exitY=0.5;exitDx=0;exitDy=0;exitPerimeter=0;strokeColor=#C9C9C9;" edge="1" parent="1" source="OmzKmfgAjD7RHGHbsQaT-246">
          <mxGeometry width="50" height="50" relative="1" as="geometry">
            <mxPoint x="1799.71" y="100" as="sourcePoint" />
            <mxPoint x="1800" y="169" as="targetPoint" />
          </mxGeometry>
        </mxCell>
        <mxCell id="OmzKmfgAjD7RHGHbsQaT-250" value="" style="endArrow=none;html=1;rounded=0;strokeWidth=3;edgeStyle=orthogonalEdgeStyle;exitX=0;exitY=0.75;exitDx=0;exitDy=0;exitPerimeter=0;entryX=0;entryY=0.25;entryDx=0;entryDy=0;entryPerimeter=0;" edge="1" parent="1" source="OmzKmfgAjD7RHGHbsQaT-244">
          <mxGeometry width="50" height="50" relative="1" as="geometry">
            <mxPoint x="1879" y="-116" as="sourcePoint" />
            <mxPoint x="1734" y="-121" as="targetPoint" />
            <Array as="points">
              <mxPoint x="1800" y="-127" />
              <mxPoint x="1734" y="-127" />
            </Array>
          </mxGeometry>
        </mxCell>
        <mxCell id="OmzKmfgAjD7RHGHbsQaT-251" value="" style="endArrow=none;html=1;rounded=0;strokeWidth=3;entryX=0.09;entryY=0.25;entryDx=0;entryDy=0;entryPerimeter=0;" edge="1" parent="1">
          <mxGeometry width="50" height="50" relative="1" as="geometry">
            <mxPoint x="1775" y="-141" as="sourcePoint" />
            <mxPoint x="1775" y="-126" as="targetPoint" />
          </mxGeometry>
        </mxCell>
        <mxCell id="OmzKmfgAjD7RHGHbsQaT-252" value="" style="endArrow=none;html=1;rounded=0;strokeWidth=3;entryX=0.09;entryY=0.25;entryDx=0;entryDy=0;entryPerimeter=0;" edge="1" parent="1">
          <mxGeometry width="50" height="50" relative="1" as="geometry">
            <mxPoint x="1704" y="-141" as="sourcePoint" />
            <mxPoint x="1703.92" y="-121" as="targetPoint" />
          </mxGeometry>
        </mxCell>
        <mxCell id="OmzKmfgAjD7RHGHbsQaT-253" value="" style="endArrow=none;html=1;rounded=0;strokeWidth=3;entryX=0.09;entryY=0.25;entryDx=0;entryDy=0;entryPerimeter=0;strokeColor=#C9C9C9;" edge="1" parent="1">
          <mxGeometry width="50" height="50" relative="1" as="geometry">
            <mxPoint x="1830.08" y="-141" as="sourcePoint" />
            <mxPoint x="1830" y="-121" as="targetPoint" />
          </mxGeometry>
        </mxCell>
        <mxCell id="OmzKmfgAjD7RHGHbsQaT-254" value="" style="endArrow=none;html=1;rounded=0;strokeWidth=3;entryX=0.09;entryY=0.25;entryDx=0;entryDy=0;entryPerimeter=0;" edge="1" parent="1">
          <mxGeometry width="50" height="50" relative="1" as="geometry">
            <mxPoint x="1568.08" y="-141" as="sourcePoint" />
            <mxPoint x="1568" y="-121" as="targetPoint" />
          </mxGeometry>
        </mxCell>
        <mxCell id="OmzKmfgAjD7RHGHbsQaT-255" value="" style="endArrow=none;html=1;rounded=0;strokeWidth=3;entryX=0.09;entryY=0.25;entryDx=0;entryDy=0;entryPerimeter=0;" edge="1" parent="1">
          <mxGeometry width="50" height="50" relative="1" as="geometry">
            <mxPoint x="1598.08" y="-141" as="sourcePoint" />
            <mxPoint x="1598" y="-121" as="targetPoint" />
          </mxGeometry>
        </mxCell>
        <mxCell id="OmzKmfgAjD7RHGHbsQaT-256" value="" style="endArrow=none;html=1;rounded=0;strokeWidth=3;entryX=0.09;entryY=0.25;entryDx=0;entryDy=0;entryPerimeter=0;strokeColor=#C9C9C9;" edge="1" parent="1">
          <mxGeometry width="50" height="50" relative="1" as="geometry">
            <mxPoint x="1530" y="-141" as="sourcePoint" />
            <mxPoint x="1530" y="-101" as="targetPoint" />
          </mxGeometry>
        </mxCell>
        <mxCell id="OmzKmfgAjD7RHGHbsQaT-257" value="" style="endArrow=none;html=1;rounded=0;strokeWidth=3;strokeColor=light-dark(#c9c9c9, #ededed);" edge="1" parent="1">
          <mxGeometry width="50" height="50" relative="1" as="geometry">
            <mxPoint x="1544.95" y="99" as="sourcePoint" />
            <mxPoint x="1544.95" y="89" as="targetPoint" />
            <Array as="points">
              <mxPoint x="1544.95" y="99" />
            </Array>
          </mxGeometry>
        </mxCell>
        <mxCell id="OmzKmfgAjD7RHGHbsQaT-258" value="" style="endArrow=none;html=1;rounded=0;strokeWidth=3;edgeStyle=orthogonalEdgeStyle;exitX=1;exitY=0.5;exitDx=0;exitDy=0;exitPerimeter=0;entryX=0;entryY=0.25;entryDx=0;entryDy=0;entryPerimeter=0;strokeColor=light-dark(#c9c9c9, #ededed);" edge="1" parent="1" source="OmzKmfgAjD7RHGHbsQaT-241" target="OmzKmfgAjD7RHGHbsQaT-238">
          <mxGeometry width="50" height="50" relative="1" as="geometry">
            <mxPoint x="1719.01" y="229" as="sourcePoint" />
            <mxPoint x="1692" y="213" as="targetPoint" />
            <Array as="points">
              <mxPoint x="1704" y="220" />
              <mxPoint x="1692" y="220" />
            </Array>
          </mxGeometry>
        </mxCell>
        <mxCell id="OmzKmfgAjD7RHGHbsQaT-259" value="" style="endArrow=none;html=1;rounded=0;strokeWidth=3;strokeColor=light-dark(#c9c9c9, #ededed);" edge="1" parent="1">
          <mxGeometry width="50" height="50" relative="1" as="geometry">
            <mxPoint x="1390.5" y="209" as="sourcePoint" />
            <mxPoint x="1437.5" y="209" as="targetPoint" />
          </mxGeometry>
        </mxCell>
        <mxCell id="OmzKmfgAjD7RHGHbsQaT-260" value="" style="endArrow=none;html=1;rounded=0;strokeWidth=3;strokeColor=light-dark(#c9c9c9, #ededed);" edge="1" parent="1">
          <mxGeometry width="50" height="50" relative="1" as="geometry">
            <mxPoint x="1464.5" y="209" as="sourcePoint" />
            <mxPoint x="1524.5" y="209" as="targetPoint" />
          </mxGeometry>
        </mxCell>
        <mxCell id="OmzKmfgAjD7RHGHbsQaT-261" value="" style="endArrow=none;html=1;rounded=0;strokeWidth=3;strokeColor=light-dark(#c9c9c9, #ededed);" edge="1" parent="1">
          <mxGeometry width="50" height="50" relative="1" as="geometry">
            <mxPoint x="1391.93" y="199" as="sourcePoint" />
            <mxPoint x="1391.93" y="209" as="targetPoint" />
          </mxGeometry>
        </mxCell>
        <mxCell id="OmzKmfgAjD7RHGHbsQaT-262" value="" style="endArrow=none;html=1;rounded=0;strokeWidth=3;entryX=0;entryY=0.75;entryDx=0;entryDy=0;entryPerimeter=0;strokeColor=light-dark(#c9c9c9, #ededed);" edge="1" parent="1" target="OmzKmfgAjD7RHGHbsQaT-227">
          <mxGeometry width="50" height="50" relative="1" as="geometry">
            <mxPoint x="1436" y="209" as="sourcePoint" />
            <mxPoint x="1443.9" y="222.5" as="targetPoint" />
          </mxGeometry>
        </mxCell>
        <mxCell id="OmzKmfgAjD7RHGHbsQaT-263" value="" style="endArrow=none;html=1;rounded=0;strokeWidth=3;entryX=0;entryY=0.75;entryDx=0;entryDy=0;entryPerimeter=0;strokeColor=light-dark(#c9c9c9, #ededed);" edge="1" parent="1">
          <mxGeometry width="50" height="50" relative="1" as="geometry">
            <mxPoint x="1466" y="209" as="sourcePoint" />
            <mxPoint x="1466" y="222.5" as="targetPoint" />
          </mxGeometry>
        </mxCell>
        <mxCell id="OmzKmfgAjD7RHGHbsQaT-264" value="" style="endArrow=none;html=1;rounded=0;strokeWidth=3;entryX=0;entryY=0.75;entryDx=0;entryDy=0;entryPerimeter=0;strokeColor=light-dark(#c9c9c9, #ededed);" edge="1" parent="1">
          <mxGeometry width="50" height="50" relative="1" as="geometry">
            <mxPoint x="1522.94" y="195.5" as="sourcePoint" />
            <mxPoint x="1522.94" y="209" as="targetPoint" />
          </mxGeometry>
        </mxCell>
        <mxCell id="OmzKmfgAjD7RHGHbsQaT-265" value="" style="endArrow=none;html=1;rounded=0;strokeWidth=3;entryX=0;entryY=0.75;entryDx=0;entryDy=0;entryPerimeter=0;strokeColor=light-dark(#c9c9c9, #ededed);" edge="1" parent="1">
          <mxGeometry width="50" height="50" relative="1" as="geometry">
            <mxPoint x="1677" y="316" as="sourcePoint" />
            <mxPoint x="1677" y="328" as="targetPoint" />
          </mxGeometry>
        </mxCell>
        <mxCell id="OmzKmfgAjD7RHGHbsQaT-266" value="" style="endArrow=none;html=1;rounded=0;strokeWidth=3;entryX=0.5;entryY=0;entryDx=0;entryDy=0;strokeColor=light-dark(#c9c9c9, #ededed);" edge="1" parent="1">
          <mxGeometry width="50" height="50" relative="1" as="geometry">
            <mxPoint x="1451" y="316" as="sourcePoint" />
            <mxPoint x="1451" y="327" as="targetPoint" />
          </mxGeometry>
        </mxCell>
        <mxCell id="OmzKmfgAjD7RHGHbsQaT-276" value="" style="endArrow=none;html=1;rounded=0;strokeWidth=3;entryX=0.879;entryY=0.499;entryDx=0;entryDy=0;entryPerimeter=0;" edge="1" parent="1" target="OmzKmfgAjD7RHGHbsQaT-234">
          <mxGeometry width="50" height="50" relative="1" as="geometry">
            <mxPoint x="1583" y="-10" as="sourcePoint" />
            <mxPoint x="1560" y="-6" as="targetPoint" />
          </mxGeometry>
        </mxCell>
        <mxCell id="OmzKmfgAjD7RHGHbsQaT-277" value="" style="endArrow=none;html=1;rounded=0;strokeWidth=3;edgeStyle=orthogonalEdgeStyle;exitX=0;exitY=0.75;exitDx=0;exitDy=0;exitPerimeter=0;entryX=0.987;entryY=0.439;entryDx=0;entryDy=0;entryPerimeter=0;strokeColor=#C9C9C9;" edge="1" parent="1" source="OmzKmfgAjD7RHGHbsQaT-236" target="OmzKmfgAjD7RHGHbsQaT-275">
          <mxGeometry width="50" height="50" relative="1" as="geometry">
            <mxPoint x="1647" y="-5" as="sourcePoint" />
            <mxPoint x="1577" y="-11" as="targetPoint" />
            <Array as="points">
              <mxPoint x="1647" y="-11" />
              <mxPoint x="1589" y="-11" />
            </Array>
          </mxGeometry>
        </mxCell>
        <mxCell id="OmzKmfgAjD7RHGHbsQaT-275" value="" style="ellipse;whiteSpace=wrap;html=1;aspect=fixed;strokeColor=#B20000;fillColor=#e51400;fontColor=#ffffff;" vertex="1" parent="1">
          <mxGeometry x="1577" y="-18" width="12" height="12" as="geometry" />
        </mxCell>
        <mxCell id="OmzKmfgAjD7RHGHbsQaT-279" value="" style="endArrow=none;html=1;rounded=0;strokeWidth=3;edgeStyle=orthogonalEdgeStyle;" edge="1" parent="1" target="OmzKmfgAjD7RHGHbsQaT-278">
          <mxGeometry width="50" height="50" relative="1" as="geometry">
            <mxPoint x="1719" y="-21" as="sourcePoint" />
            <mxPoint x="1719" y="109" as="targetPoint" />
          </mxGeometry>
        </mxCell>
        <mxCell id="OmzKmfgAjD7RHGHbsQaT-278" value="" style="ellipse;whiteSpace=wrap;html=1;aspect=fixed;strokeColor=#B20000;fillColor=#e51400;fontColor=#ffffff;" vertex="1" parent="1">
          <mxGeometry x="1713" y="-19" width="12" height="12" as="geometry" />
        </mxCell>
        <mxCell id="OmzKmfgAjD7RHGHbsQaT-281" value="&lt;font style=&quot;font-size: 30px;&quot; face=&quot;Times New Roman&quot;&gt;&lt;b style=&quot;&quot;&gt;New PO1&lt;/b&gt;&lt;/font&gt;" style="text;html=1;align=center;verticalAlign=middle;whiteSpace=wrap;rounded=0;" vertex="1" parent="1">
          <mxGeometry x="1463" y="20" width="183" height="20" as="geometry" />
        </mxCell>
        <mxCell id="OmzKmfgAjD7RHGHbsQaT-286" value="&lt;font style=&quot;font-size: 30px;&quot;&gt;&lt;font face=&quot;Times New Roman&quot;&gt;&lt;b style=&quot;&quot;&gt;2.&amp;nbsp;&lt;/b&gt;&lt;/font&gt;&lt;/font&gt;&lt;font face=&quot;Times New Roman&quot;&gt;&lt;span style=&quot;font-size: 30px;&quot;&gt;&lt;b&gt;Isolate MFFC and Define Its Inputs as New POs&lt;/b&gt;&lt;/span&gt;&lt;/font&gt;" style="text;html=1;align=center;verticalAlign=middle;whiteSpace=wrap;rounded=0;" vertex="1" parent="1">
          <mxGeometry x="1317.5" y="373" width="559" height="30" as="geometry" />
        </mxCell>
        <mxCell id="OmzKmfgAjD7RHGHbsQaT-287" value="" style="rounded=0;whiteSpace=wrap;html=1;dashed=1;strokeWidth=2;fillColor=#f5f5f5;strokeColor=#C9C9C9;shadow=1;fontColor=#333333;" vertex="1" parent="1">
          <mxGeometry x="1123" y="495" width="100" height="230" as="geometry" />
        </mxCell>
        <mxCell id="OmzKmfgAjD7RHGHbsQaT-288" value="" style="rounded=0;whiteSpace=wrap;html=1;dashed=1;strokeWidth=2;fillColor=#f5f5f5;strokeColor=#C9C9C9;shadow=1;fontColor=#333333;" vertex="1" parent="1">
          <mxGeometry x="967" y="603" width="140" height="324" as="geometry" />
        </mxCell>
        <mxCell id="OmzKmfgAjD7RHGHbsQaT-289" value="" style="rounded=0;whiteSpace=wrap;html=1;dashed=1;strokeWidth=2;fillColor=#f5f5f5;strokeColor=#C9C9C9;shadow=1;fontColor=#333333;" vertex="1" parent="1">
          <mxGeometry x="700" y="603" width="250" height="324" as="geometry" />
        </mxCell>
        <mxCell id="OmzKmfgAjD7RHGHbsQaT-290" value="" style="endArrow=none;html=1;rounded=0;strokeWidth=3;entryX=0;entryY=0.75;entryDx=0;entryDy=0;entryPerimeter=0;strokeColor=light-dark(#c9c9c9, #ededed);" edge="1" parent="1">
          <mxGeometry width="50" height="50" relative="1" as="geometry">
            <mxPoint x="809" y="933" as="sourcePoint" />
            <mxPoint x="809" y="934" as="targetPoint" />
          </mxGeometry>
        </mxCell>
        <mxCell id="OmzKmfgAjD7RHGHbsQaT-291" value="" style="verticalLabelPosition=bottom;shadow=0;dashed=0;align=center;html=1;verticalAlign=top;shape=mxgraph.electrical.logic_gates.logic_gate;operation=xor;negating=1;negSize=0.15;strokeWidth=3;direction=south;strokeColor=light-dark(#c9c9c9, #ededed);" vertex="1" parent="1">
          <mxGeometry x="851" y="705" width="60" height="100" as="geometry" />
        </mxCell>
        <mxCell id="OmzKmfgAjD7RHGHbsQaT-292" value="" style="verticalLabelPosition=bottom;shadow=0;dashed=0;align=center;html=1;verticalAlign=top;shape=mxgraph.electrical.logic_gates.logic_gate;operation=and;negating=1;negSize=0.15;strokeWidth=3;direction=south;strokeColor=light-dark(#c9c9c9, #ededed);" vertex="1" parent="1">
          <mxGeometry x="720" y="705" width="60" height="100" as="geometry" />
        </mxCell>
        <mxCell id="OmzKmfgAjD7RHGHbsQaT-293" value="" style="verticalLabelPosition=bottom;shadow=0;dashed=0;align=center;html=1;verticalAlign=top;shape=mxgraph.electrical.logic_gates.logic_gate;operation=and;negating=1;negSize=0.15;strokeWidth=3;direction=south;strokeColor=light-dark(#c9c9c9, #ededed);" vertex="1" parent="1">
          <mxGeometry x="772" y="599" width="60" height="100" as="geometry" />
        </mxCell>
        <mxCell id="OmzKmfgAjD7RHGHbsQaT-294" value="" style="endArrow=none;html=1;rounded=0;entryX=1;entryY=0.5;entryDx=0;entryDy=0;entryPerimeter=0;strokeWidth=3;strokeColor=light-dark(#c9c9c9, #ededed);" edge="1" parent="1" target="OmzKmfgAjD7RHGHbsQaT-293">
          <mxGeometry width="50" height="50" relative="1" as="geometry">
            <mxPoint x="802" y="705" as="sourcePoint" />
            <mxPoint x="802" y="794" as="targetPoint" />
          </mxGeometry>
        </mxCell>
        <mxCell id="OmzKmfgAjD7RHGHbsQaT-295" value="" style="verticalLabelPosition=bottom;shadow=0;dashed=0;align=center;html=1;verticalAlign=top;shape=mxgraph.electrical.logic_gates.logic_gate;operation=xor;negating=1;negSize=0.15;strokeWidth=3;direction=south;strokeColor=light-dark(#c9c9c9, #ededed);" vertex="1" parent="1">
          <mxGeometry x="779" y="827" width="60" height="100" as="geometry" />
        </mxCell>
        <mxCell id="OmzKmfgAjD7RHGHbsQaT-296" value="" style="endArrow=none;html=1;rounded=0;strokeWidth=3;entryX=0;entryY=0.75;entryDx=0;entryDy=0;entryPerimeter=0;edgeStyle=orthogonalEdgeStyle;strokeColor=light-dark(#c9c9c9, #ededed);" edge="1" parent="1" target="OmzKmfgAjD7RHGHbsQaT-292">
          <mxGeometry width="50" height="50" relative="1" as="geometry">
            <mxPoint x="735" y="465" as="sourcePoint" />
            <mxPoint x="711" y="703" as="targetPoint" />
            <Array as="points">
              <mxPoint x="735" y="473" />
            </Array>
          </mxGeometry>
        </mxCell>
        <mxCell id="OmzKmfgAjD7RHGHbsQaT-297" value="" style="endArrow=none;html=1;rounded=0;strokeWidth=3;entryX=0;entryY=0.75;entryDx=0;entryDy=0;entryPerimeter=0;edgeStyle=orthogonalEdgeStyle;strokeColor=#C9C9C9;" edge="1" parent="1" target="OmzKmfgAjD7RHGHbsQaT-293">
          <mxGeometry width="50" height="50" relative="1" as="geometry">
            <mxPoint x="787" y="465" as="sourcePoint" />
            <mxPoint x="792" y="584" as="targetPoint" />
          </mxGeometry>
        </mxCell>
        <mxCell id="OmzKmfgAjD7RHGHbsQaT-298" value="" style="endArrow=none;html=1;rounded=0;strokeWidth=3;entryX=0;entryY=0.25;entryDx=0;entryDy=0;entryPerimeter=0;edgeStyle=orthogonalEdgeStyle;strokeColor=#C9C9C9;" edge="1" parent="1" target="OmzKmfgAjD7RHGHbsQaT-293">
          <mxGeometry width="50" height="50" relative="1" as="geometry">
            <mxPoint x="817" y="465" as="sourcePoint" />
            <mxPoint x="797" y="614" as="targetPoint" />
          </mxGeometry>
        </mxCell>
        <mxCell id="OmzKmfgAjD7RHGHbsQaT-299" value="" style="verticalLabelPosition=bottom;shadow=0;dashed=0;align=center;html=1;verticalAlign=top;shape=mxgraph.electrical.logic_gates.logic_gate;operation=and;negating=1;negSize=0.15;strokeWidth=3;direction=south;strokeColor=light-dark(#c9c9c9, #ededed);" vertex="1" parent="1">
          <mxGeometry x="873" y="600" width="60" height="100" as="geometry" />
        </mxCell>
        <mxCell id="OmzKmfgAjD7RHGHbsQaT-300" value="" style="endArrow=none;html=1;rounded=0;strokeWidth=3;strokeColor=light-dark(#c9c9c9, #ededed);" edge="1" parent="1">
          <mxGeometry width="50" height="50" relative="1" as="geometry">
            <mxPoint x="904.5" y="705" as="sourcePoint" />
            <mxPoint x="895" y="705" as="targetPoint" />
          </mxGeometry>
        </mxCell>
        <mxCell id="OmzKmfgAjD7RHGHbsQaT-301" value="" style="endArrow=none;html=1;rounded=0;strokeWidth=3;entryX=0;entryY=0.75;entryDx=0;entryDy=0;entryPerimeter=0;edgeStyle=orthogonalEdgeStyle;strokeColor=#C9C9C9;" edge="1" parent="1" target="OmzKmfgAjD7RHGHbsQaT-299">
          <mxGeometry width="50" height="50" relative="1" as="geometry">
            <mxPoint x="888" y="505" as="sourcePoint" />
            <mxPoint x="883" y="595" as="targetPoint" />
          </mxGeometry>
        </mxCell>
        <mxCell id="OmzKmfgAjD7RHGHbsQaT-302" value="" style="verticalLabelPosition=bottom;shadow=0;dashed=0;align=center;html=1;verticalAlign=top;shape=mxgraph.electrical.logic_gates.logic_gate;operation=and;negating=1;negSize=0.15;strokeWidth=3;direction=south;" vertex="1" parent="1">
          <mxGeometry x="911" y="485" width="60" height="100" as="geometry" />
        </mxCell>
        <mxCell id="OmzKmfgAjD7RHGHbsQaT-303" value="" style="endArrow=none;html=1;rounded=0;strokeWidth=3;entryX=0;entryY=0.25;entryDx=0;entryDy=0;entryPerimeter=0;edgeStyle=orthogonalEdgeStyle;exitX=0;exitY=0.5;exitDx=0;exitDy=0;strokeColor=#C9C9C9;" edge="1" parent="1" source="OmzKmfgAjD7RHGHbsQaT-336" target="OmzKmfgAjD7RHGHbsQaT-299">
          <mxGeometry width="50" height="50" relative="1" as="geometry">
            <mxPoint x="934" y="596" as="sourcePoint" />
            <mxPoint x="860" y="605" as="targetPoint" />
          </mxGeometry>
        </mxCell>
        <mxCell id="OmzKmfgAjD7RHGHbsQaT-304" value="" style="verticalLabelPosition=bottom;shadow=0;dashed=0;align=center;html=1;verticalAlign=top;shape=mxgraph.electrical.logic_gates.logic_gate;operation=and;negating=1;negSize=0.15;strokeWidth=3;direction=south;strokeColor=light-dark(#c9c9c9, #ededed);" vertex="1" parent="1">
          <mxGeometry x="990" y="601" width="60" height="100" as="geometry" />
        </mxCell>
        <mxCell id="OmzKmfgAjD7RHGHbsQaT-305" value="" style="verticalLabelPosition=bottom;shadow=0;dashed=0;align=center;html=1;verticalAlign=top;shape=mxgraph.electrical.logic_gates.logic_gate;operation=xor;negating=1;negSize=0.15;strokeWidth=3;direction=south;strokeColor=light-dark(#c9c9c9, #ededed);" vertex="1" parent="1">
          <mxGeometry x="1005" y="828" width="60" height="100" as="geometry" />
        </mxCell>
        <mxCell id="OmzKmfgAjD7RHGHbsQaT-306" value="" style="endArrow=none;html=1;rounded=0;strokeWidth=3;entryX=0;entryY=0.75;entryDx=0;entryDy=0;entryPerimeter=0;edgeStyle=orthogonalEdgeStyle;exitX=1;exitY=0.5;exitDx=0;exitDy=0;exitPerimeter=0;strokeColor=light-dark(#c9c9c9, #ededed);" edge="1" parent="1" source="OmzKmfgAjD7RHGHbsQaT-304" target="OmzKmfgAjD7RHGHbsQaT-305">
          <mxGeometry width="50" height="50" relative="1" as="geometry">
            <mxPoint x="1000" y="685" as="sourcePoint" />
            <mxPoint x="1000" y="925" as="targetPoint" />
          </mxGeometry>
        </mxCell>
        <mxCell id="OmzKmfgAjD7RHGHbsQaT-307" value="" style="endArrow=none;html=1;rounded=0;strokeWidth=3;strokeColor=light-dark(#c9c9c9, #ededed);" edge="1" parent="1">
          <mxGeometry width="50" height="50" relative="1" as="geometry">
            <mxPoint x="763.5" y="704" as="sourcePoint" />
            <mxPoint x="866.5" y="704" as="targetPoint" />
          </mxGeometry>
        </mxCell>
        <mxCell id="OmzKmfgAjD7RHGHbsQaT-308" value="" style="verticalLabelPosition=bottom;shadow=0;dashed=0;align=center;html=1;verticalAlign=top;shape=mxgraph.electrical.logic_gates.logic_gate;operation=and;negating=1;negSize=0.15;strokeWidth=3;direction=south;strokeColor=light-dark(#c9c9c9, #ededed);" vertex="1" parent="1">
          <mxGeometry x="1032" y="715" width="60" height="100" as="geometry" />
        </mxCell>
        <mxCell id="OmzKmfgAjD7RHGHbsQaT-309" value="" style="endArrow=none;html=1;rounded=0;strokeWidth=3;edgeStyle=orthogonalEdgeStyle;exitX=0;exitY=0.75;exitDx=0;exitDy=0;exitPerimeter=0;strokeColor=light-dark(#c9c9c9, #ededed);" edge="1" parent="1" source="OmzKmfgAjD7RHGHbsQaT-308">
          <mxGeometry width="50" height="50" relative="1" as="geometry">
            <mxPoint x="1064.9899999999998" y="715" as="sourcePoint" />
            <mxPoint x="1019.9899999999998" y="699" as="targetPoint" />
            <Array as="points">
              <mxPoint x="1047" y="706" />
              <mxPoint x="1020" y="706" />
            </Array>
          </mxGeometry>
        </mxCell>
        <mxCell id="OmzKmfgAjD7RHGHbsQaT-310" value="" style="verticalLabelPosition=bottom;shadow=0;dashed=0;align=center;html=1;verticalAlign=top;shape=mxgraph.electrical.logic_gates.logic_gate;operation=xor;negating=1;negSize=0.15;strokeWidth=3;direction=south;" vertex="1" parent="1">
          <mxGeometry x="1047" y="485" width="60" height="100" as="geometry" />
        </mxCell>
        <mxCell id="OmzKmfgAjD7RHGHbsQaT-311" value="" style="verticalLabelPosition=bottom;shadow=0;dashed=0;align=center;html=1;verticalAlign=top;shape=mxgraph.electrical.logic_gates.logic_gate;operation=xor;negating=1;negSize=0.15;strokeWidth=3;direction=south;strokeColor=light-dark(#c9c9c9, #ededed);" vertex="1" parent="1">
          <mxGeometry x="1143" y="485" width="60" height="100" as="geometry" />
        </mxCell>
        <mxCell id="OmzKmfgAjD7RHGHbsQaT-312" value="" style="endArrow=none;html=1;rounded=0;strokeWidth=3;entryX=0;entryY=0.25;entryDx=0;entryDy=0;entryPerimeter=0;edgeStyle=orthogonalEdgeStyle;strokeColor=#C9C9C9;" edge="1" parent="1" source="OmzKmfgAjD7RHGHbsQaT-338" target="OmzKmfgAjD7RHGHbsQaT-308">
          <mxGeometry width="50" height="50" relative="1" as="geometry">
            <mxPoint x="1077" y="585" as="sourcePoint" />
            <mxPoint x="1076.71" y="715" as="targetPoint" />
          </mxGeometry>
        </mxCell>
        <mxCell id="OmzKmfgAjD7RHGHbsQaT-313" value="" style="verticalLabelPosition=bottom;shadow=0;dashed=0;align=center;html=1;verticalAlign=top;shape=mxgraph.electrical.logic_gates.logic_gate;operation=xor;negating=1;negSize=0.15;strokeWidth=3;direction=south;strokeColor=light-dark(#c9c9c9, #ededed);" vertex="1" parent="1">
          <mxGeometry x="1128" y="606" width="60" height="100" as="geometry" />
        </mxCell>
        <mxCell id="OmzKmfgAjD7RHGHbsQaT-314" value="" style="endArrow=none;html=1;rounded=0;strokeWidth=3;exitX=1;exitY=0.5;exitDx=0;exitDy=0;exitPerimeter=0;entryX=0.09;entryY=0.25;entryDx=0;entryDy=0;entryPerimeter=0;strokeColor=#C9C9C9;" edge="1" parent="1" source="OmzKmfgAjD7RHGHbsQaT-311" target="OmzKmfgAjD7RHGHbsQaT-313">
          <mxGeometry width="50" height="50" relative="1" as="geometry">
            <mxPoint x="1068" y="595" as="sourcePoint" />
            <mxPoint x="1173" y="605" as="targetPoint" />
          </mxGeometry>
        </mxCell>
        <mxCell id="OmzKmfgAjD7RHGHbsQaT-315" value="" style="endArrow=none;html=1;rounded=0;strokeWidth=3;edgeStyle=orthogonalEdgeStyle;exitX=0;exitY=0.75;exitDx=0;exitDy=0;exitPerimeter=0;entryX=0;entryY=0.25;entryDx=0;entryDy=0;entryPerimeter=0;strokeColor=#C9C9C9;" edge="1" parent="1" source="OmzKmfgAjD7RHGHbsQaT-313" target="OmzKmfgAjD7RHGHbsQaT-304">
          <mxGeometry width="50" height="50" relative="1" as="geometry">
            <mxPoint x="1124.9899999999998" y="591" as="sourcePoint" />
            <mxPoint x="1079.9899999999998" y="575" as="targetPoint" />
            <Array as="points">
              <mxPoint x="1143" y="595" />
              <mxPoint x="1035" y="595" />
            </Array>
          </mxGeometry>
        </mxCell>
        <mxCell id="OmzKmfgAjD7RHGHbsQaT-316" value="" style="endArrow=none;html=1;rounded=0;strokeWidth=3;exitX=0.986;exitY=0.5;exitDx=0;exitDy=0;exitPerimeter=0;strokeColor=#C9C9C9;" edge="1" parent="1" source="OmzKmfgAjD7RHGHbsQaT-313">
          <mxGeometry width="50" height="50" relative="1" as="geometry">
            <mxPoint x="1157.71" y="706" as="sourcePoint" />
            <mxPoint x="1158" y="775" as="targetPoint" />
          </mxGeometry>
        </mxCell>
        <mxCell id="OmzKmfgAjD7RHGHbsQaT-317" value="" style="endArrow=none;html=1;rounded=0;strokeWidth=3;edgeStyle=orthogonalEdgeStyle;exitX=0;exitY=0.75;exitDx=0;exitDy=0;exitPerimeter=0;entryX=0;entryY=0.25;entryDx=0;entryDy=0;entryPerimeter=0;" edge="1" parent="1" source="OmzKmfgAjD7RHGHbsQaT-311">
          <mxGeometry width="50" height="50" relative="1" as="geometry">
            <mxPoint x="1237" y="490" as="sourcePoint" />
            <mxPoint x="1092" y="485" as="targetPoint" />
            <Array as="points">
              <mxPoint x="1158" y="479" />
              <mxPoint x="1092" y="479" />
            </Array>
          </mxGeometry>
        </mxCell>
        <mxCell id="OmzKmfgAjD7RHGHbsQaT-318" value="" style="endArrow=none;html=1;rounded=0;strokeWidth=3;entryX=0.09;entryY=0.25;entryDx=0;entryDy=0;entryPerimeter=0;" edge="1" parent="1">
          <mxGeometry width="50" height="50" relative="1" as="geometry">
            <mxPoint x="1133" y="465" as="sourcePoint" />
            <mxPoint x="1133" y="480" as="targetPoint" />
          </mxGeometry>
        </mxCell>
        <mxCell id="OmzKmfgAjD7RHGHbsQaT-319" value="" style="endArrow=none;html=1;rounded=0;strokeWidth=3;entryX=0.09;entryY=0.25;entryDx=0;entryDy=0;entryPerimeter=0;" edge="1" parent="1">
          <mxGeometry width="50" height="50" relative="1" as="geometry">
            <mxPoint x="1062" y="465" as="sourcePoint" />
            <mxPoint x="1061.92" y="485" as="targetPoint" />
          </mxGeometry>
        </mxCell>
        <mxCell id="OmzKmfgAjD7RHGHbsQaT-320" value="" style="endArrow=none;html=1;rounded=0;strokeWidth=3;entryX=0.09;entryY=0.25;entryDx=0;entryDy=0;entryPerimeter=0;strokeColor=#C9C9C9;" edge="1" parent="1">
          <mxGeometry width="50" height="50" relative="1" as="geometry">
            <mxPoint x="1188.08" y="465" as="sourcePoint" />
            <mxPoint x="1188" y="485" as="targetPoint" />
          </mxGeometry>
        </mxCell>
        <mxCell id="OmzKmfgAjD7RHGHbsQaT-321" value="" style="endArrow=none;html=1;rounded=0;strokeWidth=3;entryX=0.09;entryY=0.25;entryDx=0;entryDy=0;entryPerimeter=0;" edge="1" parent="1">
          <mxGeometry width="50" height="50" relative="1" as="geometry">
            <mxPoint x="926.0799999999999" y="465" as="sourcePoint" />
            <mxPoint x="926" y="485" as="targetPoint" />
          </mxGeometry>
        </mxCell>
        <mxCell id="OmzKmfgAjD7RHGHbsQaT-322" value="" style="endArrow=none;html=1;rounded=0;strokeWidth=3;entryX=0.09;entryY=0.25;entryDx=0;entryDy=0;entryPerimeter=0;" edge="1" parent="1">
          <mxGeometry width="50" height="50" relative="1" as="geometry">
            <mxPoint x="956.0799999999999" y="465" as="sourcePoint" />
            <mxPoint x="956" y="485" as="targetPoint" />
          </mxGeometry>
        </mxCell>
        <mxCell id="OmzKmfgAjD7RHGHbsQaT-323" value="" style="endArrow=none;html=1;rounded=0;strokeWidth=3;entryX=0.09;entryY=0.25;entryDx=0;entryDy=0;entryPerimeter=0;strokeColor=#C9C9C9;" edge="1" parent="1">
          <mxGeometry width="50" height="50" relative="1" as="geometry">
            <mxPoint x="888" y="465" as="sourcePoint" />
            <mxPoint x="888" y="505" as="targetPoint" />
          </mxGeometry>
        </mxCell>
        <mxCell id="OmzKmfgAjD7RHGHbsQaT-324" value="" style="endArrow=none;html=1;rounded=0;strokeWidth=3;strokeColor=light-dark(#c9c9c9, #ededed);" edge="1" parent="1">
          <mxGeometry width="50" height="50" relative="1" as="geometry">
            <mxPoint x="902.9499999999998" y="705" as="sourcePoint" />
            <mxPoint x="902.9499999999998" y="695" as="targetPoint" />
            <Array as="points">
              <mxPoint x="902.9499999999998" y="705" />
            </Array>
          </mxGeometry>
        </mxCell>
        <mxCell id="OmzKmfgAjD7RHGHbsQaT-325" value="" style="endArrow=none;html=1;rounded=0;strokeWidth=3;edgeStyle=orthogonalEdgeStyle;exitX=1;exitY=0.5;exitDx=0;exitDy=0;exitPerimeter=0;entryX=0;entryY=0.25;entryDx=0;entryDy=0;entryPerimeter=0;strokeColor=light-dark(#c9c9c9, #ededed);" edge="1" parent="1" source="OmzKmfgAjD7RHGHbsQaT-308" target="OmzKmfgAjD7RHGHbsQaT-305">
          <mxGeometry width="50" height="50" relative="1" as="geometry">
            <mxPoint x="1077.0100000000002" y="835" as="sourcePoint" />
            <mxPoint x="1050" y="819" as="targetPoint" />
            <Array as="points">
              <mxPoint x="1062" y="826" />
              <mxPoint x="1050" y="826" />
            </Array>
          </mxGeometry>
        </mxCell>
        <mxCell id="OmzKmfgAjD7RHGHbsQaT-326" value="" style="endArrow=none;html=1;rounded=0;strokeWidth=3;strokeColor=light-dark(#c9c9c9, #ededed);" edge="1" parent="1">
          <mxGeometry width="50" height="50" relative="1" as="geometry">
            <mxPoint x="748.5" y="815" as="sourcePoint" />
            <mxPoint x="795.5" y="815" as="targetPoint" />
          </mxGeometry>
        </mxCell>
        <mxCell id="OmzKmfgAjD7RHGHbsQaT-327" value="" style="endArrow=none;html=1;rounded=0;strokeWidth=3;strokeColor=light-dark(#c9c9c9, #ededed);" edge="1" parent="1">
          <mxGeometry width="50" height="50" relative="1" as="geometry">
            <mxPoint x="822.5" y="815" as="sourcePoint" />
            <mxPoint x="882.5" y="815" as="targetPoint" />
          </mxGeometry>
        </mxCell>
        <mxCell id="OmzKmfgAjD7RHGHbsQaT-328" value="" style="endArrow=none;html=1;rounded=0;strokeWidth=3;strokeColor=light-dark(#c9c9c9, #ededed);" edge="1" parent="1">
          <mxGeometry width="50" height="50" relative="1" as="geometry">
            <mxPoint x="749.9300000000001" y="805" as="sourcePoint" />
            <mxPoint x="749.9300000000001" y="815" as="targetPoint" />
          </mxGeometry>
        </mxCell>
        <mxCell id="OmzKmfgAjD7RHGHbsQaT-329" value="" style="endArrow=none;html=1;rounded=0;strokeWidth=3;entryX=0;entryY=0.75;entryDx=0;entryDy=0;entryPerimeter=0;strokeColor=light-dark(#c9c9c9, #ededed);" edge="1" parent="1" target="OmzKmfgAjD7RHGHbsQaT-295">
          <mxGeometry width="50" height="50" relative="1" as="geometry">
            <mxPoint x="794" y="815" as="sourcePoint" />
            <mxPoint x="801.9000000000001" y="828.5" as="targetPoint" />
          </mxGeometry>
        </mxCell>
        <mxCell id="OmzKmfgAjD7RHGHbsQaT-330" value="" style="endArrow=none;html=1;rounded=0;strokeWidth=3;entryX=0;entryY=0.75;entryDx=0;entryDy=0;entryPerimeter=0;strokeColor=light-dark(#c9c9c9, #ededed);" edge="1" parent="1">
          <mxGeometry width="50" height="50" relative="1" as="geometry">
            <mxPoint x="824" y="815" as="sourcePoint" />
            <mxPoint x="824" y="828.5" as="targetPoint" />
          </mxGeometry>
        </mxCell>
        <mxCell id="OmzKmfgAjD7RHGHbsQaT-331" value="" style="endArrow=none;html=1;rounded=0;strokeWidth=3;entryX=0;entryY=0.75;entryDx=0;entryDy=0;entryPerimeter=0;strokeColor=light-dark(#c9c9c9, #ededed);" edge="1" parent="1">
          <mxGeometry width="50" height="50" relative="1" as="geometry">
            <mxPoint x="880.94" y="801.5" as="sourcePoint" />
            <mxPoint x="880.94" y="815" as="targetPoint" />
          </mxGeometry>
        </mxCell>
        <mxCell id="OmzKmfgAjD7RHGHbsQaT-332" value="" style="endArrow=none;html=1;rounded=0;strokeWidth=3;entryX=0;entryY=0.75;entryDx=0;entryDy=0;entryPerimeter=0;strokeColor=light-dark(#c9c9c9, #ededed);" edge="1" parent="1">
          <mxGeometry width="50" height="50" relative="1" as="geometry">
            <mxPoint x="1035" y="922" as="sourcePoint" />
            <mxPoint x="1035" y="934" as="targetPoint" />
          </mxGeometry>
        </mxCell>
        <mxCell id="OmzKmfgAjD7RHGHbsQaT-333" value="" style="endArrow=none;html=1;rounded=0;strokeWidth=3;entryX=0.5;entryY=0;entryDx=0;entryDy=0;strokeColor=light-dark(#c9c9c9, #ededed);" edge="1" parent="1">
          <mxGeometry width="50" height="50" relative="1" as="geometry">
            <mxPoint x="809" y="922" as="sourcePoint" />
            <mxPoint x="809" y="933" as="targetPoint" />
          </mxGeometry>
        </mxCell>
        <mxCell id="OmzKmfgAjD7RHGHbsQaT-334" value="" style="endArrow=none;html=1;rounded=0;strokeWidth=3;entryX=0.879;entryY=0.499;entryDx=0;entryDy=0;entryPerimeter=0;" edge="1" parent="1" target="OmzKmfgAjD7RHGHbsQaT-302">
          <mxGeometry width="50" height="50" relative="1" as="geometry">
            <mxPoint x="941" y="596" as="sourcePoint" />
            <mxPoint x="918" y="600" as="targetPoint" />
          </mxGeometry>
        </mxCell>
        <mxCell id="OmzKmfgAjD7RHGHbsQaT-335" value="" style="endArrow=none;html=1;rounded=0;strokeWidth=3;edgeStyle=orthogonalEdgeStyle;exitX=0;exitY=0.75;exitDx=0;exitDy=0;exitPerimeter=0;entryX=0.987;entryY=0.439;entryDx=0;entryDy=0;entryPerimeter=0;strokeColor=#C9C9C9;" edge="1" parent="1" source="OmzKmfgAjD7RHGHbsQaT-304" target="OmzKmfgAjD7RHGHbsQaT-336">
          <mxGeometry width="50" height="50" relative="1" as="geometry">
            <mxPoint x="1005" y="601" as="sourcePoint" />
            <mxPoint x="935" y="595" as="targetPoint" />
            <Array as="points">
              <mxPoint x="1005" y="595" />
              <mxPoint x="947" y="595" />
            </Array>
          </mxGeometry>
        </mxCell>
        <mxCell id="OmzKmfgAjD7RHGHbsQaT-336" value="" style="ellipse;whiteSpace=wrap;html=1;aspect=fixed;strokeColor=#B20000;fillColor=#e51400;fontColor=#ffffff;" vertex="1" parent="1">
          <mxGeometry x="935" y="588" width="12" height="12" as="geometry" />
        </mxCell>
        <mxCell id="OmzKmfgAjD7RHGHbsQaT-337" value="" style="endArrow=none;html=1;rounded=0;strokeWidth=3;edgeStyle=orthogonalEdgeStyle;" edge="1" parent="1" target="OmzKmfgAjD7RHGHbsQaT-338">
          <mxGeometry width="50" height="50" relative="1" as="geometry">
            <mxPoint x="1077" y="585" as="sourcePoint" />
            <mxPoint x="1077" y="715" as="targetPoint" />
          </mxGeometry>
        </mxCell>
        <mxCell id="OmzKmfgAjD7RHGHbsQaT-338" value="" style="ellipse;whiteSpace=wrap;html=1;aspect=fixed;strokeColor=#B20000;fillColor=#e51400;fontColor=#ffffff;" vertex="1" parent="1">
          <mxGeometry x="1071" y="587" width="12" height="12" as="geometry" />
        </mxCell>
        <mxCell id="OmzKmfgAjD7RHGHbsQaT-343" value="" style="rounded=0;whiteSpace=wrap;html=1;dashed=1;strokeWidth=2;fillColor=#F5F5F5;strokeColor=#C9C9C9;shadow=1;" vertex="1" parent="1">
          <mxGeometry x="1695" y="475" width="77" height="90" as="geometry" />
        </mxCell>
        <mxCell id="OmzKmfgAjD7RHGHbsQaT-344" value="" style="rounded=0;whiteSpace=wrap;html=1;dashed=1;strokeWidth=2;fillColor=#F5F5F5;strokeColor=#C9C9C9;shadow=1;" vertex="1" parent="1">
          <mxGeometry x="1557" y="482" width="80" height="80" as="geometry" />
        </mxCell>
        <mxCell id="OmzKmfgAjD7RHGHbsQaT-345" value="" style="rounded=0;whiteSpace=wrap;html=1;dashed=1;strokeWidth=2;fillColor=#f5f5f5;strokeColor=#C9C9C9;shadow=1;fontColor=#333333;" vertex="1" parent="1">
          <mxGeometry x="1779" y="490" width="100" height="230" as="geometry" />
        </mxCell>
        <mxCell id="OmzKmfgAjD7RHGHbsQaT-346" value="" style="rounded=0;whiteSpace=wrap;html=1;dashed=1;strokeWidth=2;fillColor=#f5f5f5;strokeColor=#C9C9C9;shadow=1;fontColor=#333333;" vertex="1" parent="1">
          <mxGeometry x="1623" y="598" width="140" height="324" as="geometry" />
        </mxCell>
        <mxCell id="OmzKmfgAjD7RHGHbsQaT-347" value="" style="rounded=0;whiteSpace=wrap;html=1;dashed=1;strokeWidth=2;fillColor=#f5f5f5;strokeColor=#C9C9C9;shadow=1;fontColor=#333333;" vertex="1" parent="1">
          <mxGeometry x="1356" y="598" width="250" height="324" as="geometry" />
        </mxCell>
        <mxCell id="OmzKmfgAjD7RHGHbsQaT-348" value="" style="endArrow=none;html=1;rounded=0;strokeWidth=3;entryX=0;entryY=0.75;entryDx=0;entryDy=0;entryPerimeter=0;strokeColor=light-dark(#c9c9c9, #ededed);" edge="1" parent="1">
          <mxGeometry width="50" height="50" relative="1" as="geometry">
            <mxPoint x="1465" y="928" as="sourcePoint" />
            <mxPoint x="1465" y="929" as="targetPoint" />
          </mxGeometry>
        </mxCell>
        <mxCell id="OmzKmfgAjD7RHGHbsQaT-349" value="" style="verticalLabelPosition=bottom;shadow=0;dashed=0;align=center;html=1;verticalAlign=top;shape=mxgraph.electrical.logic_gates.logic_gate;operation=xor;negating=1;negSize=0.15;strokeWidth=3;direction=south;strokeColor=light-dark(#c9c9c9, #ededed);" vertex="1" parent="1">
          <mxGeometry x="1507" y="700" width="60" height="100" as="geometry" />
        </mxCell>
        <mxCell id="OmzKmfgAjD7RHGHbsQaT-350" value="" style="verticalLabelPosition=bottom;shadow=0;dashed=0;align=center;html=1;verticalAlign=top;shape=mxgraph.electrical.logic_gates.logic_gate;operation=and;negating=1;negSize=0.15;strokeWidth=3;direction=south;strokeColor=light-dark(#c9c9c9, #ededed);" vertex="1" parent="1">
          <mxGeometry x="1376" y="700" width="60" height="100" as="geometry" />
        </mxCell>
        <mxCell id="OmzKmfgAjD7RHGHbsQaT-351" value="" style="verticalLabelPosition=bottom;shadow=0;dashed=0;align=center;html=1;verticalAlign=top;shape=mxgraph.electrical.logic_gates.logic_gate;operation=and;negating=1;negSize=0.15;strokeWidth=3;direction=south;strokeColor=light-dark(#c9c9c9, #ededed);" vertex="1" parent="1">
          <mxGeometry x="1428" y="594" width="60" height="100" as="geometry" />
        </mxCell>
        <mxCell id="OmzKmfgAjD7RHGHbsQaT-352" value="" style="endArrow=none;html=1;rounded=0;entryX=1;entryY=0.5;entryDx=0;entryDy=0;entryPerimeter=0;strokeWidth=3;strokeColor=light-dark(#c9c9c9, #ededed);" edge="1" parent="1" target="OmzKmfgAjD7RHGHbsQaT-351">
          <mxGeometry width="50" height="50" relative="1" as="geometry">
            <mxPoint x="1458" y="700" as="sourcePoint" />
            <mxPoint x="1458" y="789" as="targetPoint" />
          </mxGeometry>
        </mxCell>
        <mxCell id="OmzKmfgAjD7RHGHbsQaT-353" value="" style="verticalLabelPosition=bottom;shadow=0;dashed=0;align=center;html=1;verticalAlign=top;shape=mxgraph.electrical.logic_gates.logic_gate;operation=xor;negating=1;negSize=0.15;strokeWidth=3;direction=south;strokeColor=light-dark(#c9c9c9, #ededed);" vertex="1" parent="1">
          <mxGeometry x="1435" y="822" width="60" height="100" as="geometry" />
        </mxCell>
        <mxCell id="OmzKmfgAjD7RHGHbsQaT-354" value="" style="endArrow=none;html=1;rounded=0;strokeWidth=3;entryX=0;entryY=0.75;entryDx=0;entryDy=0;entryPerimeter=0;edgeStyle=orthogonalEdgeStyle;strokeColor=light-dark(#c9c9c9, #ededed);" edge="1" parent="1" target="OmzKmfgAjD7RHGHbsQaT-350">
          <mxGeometry width="50" height="50" relative="1" as="geometry">
            <mxPoint x="1391" y="460" as="sourcePoint" />
            <mxPoint x="1367" y="698" as="targetPoint" />
            <Array as="points">
              <mxPoint x="1391" y="468" />
            </Array>
          </mxGeometry>
        </mxCell>
        <mxCell id="OmzKmfgAjD7RHGHbsQaT-355" value="" style="endArrow=none;html=1;rounded=0;strokeWidth=3;entryX=0;entryY=0.75;entryDx=0;entryDy=0;entryPerimeter=0;edgeStyle=orthogonalEdgeStyle;strokeColor=#C9C9C9;" edge="1" parent="1" target="OmzKmfgAjD7RHGHbsQaT-351">
          <mxGeometry width="50" height="50" relative="1" as="geometry">
            <mxPoint x="1443" y="460" as="sourcePoint" />
            <mxPoint x="1448" y="579" as="targetPoint" />
          </mxGeometry>
        </mxCell>
        <mxCell id="OmzKmfgAjD7RHGHbsQaT-356" value="" style="endArrow=none;html=1;rounded=0;strokeWidth=3;entryX=0;entryY=0.25;entryDx=0;entryDy=0;entryPerimeter=0;edgeStyle=orthogonalEdgeStyle;strokeColor=#C9C9C9;" edge="1" parent="1" target="OmzKmfgAjD7RHGHbsQaT-351">
          <mxGeometry width="50" height="50" relative="1" as="geometry">
            <mxPoint x="1473" y="460" as="sourcePoint" />
            <mxPoint x="1453" y="609" as="targetPoint" />
          </mxGeometry>
        </mxCell>
        <mxCell id="OmzKmfgAjD7RHGHbsQaT-357" value="" style="verticalLabelPosition=bottom;shadow=0;dashed=0;align=center;html=1;verticalAlign=top;shape=mxgraph.electrical.logic_gates.logic_gate;operation=and;negating=1;negSize=0.15;strokeWidth=3;direction=south;strokeColor=light-dark(#c9c9c9, #ededed);" vertex="1" parent="1">
          <mxGeometry x="1529" y="595" width="60" height="100" as="geometry" />
        </mxCell>
        <mxCell id="OmzKmfgAjD7RHGHbsQaT-358" value="" style="endArrow=none;html=1;rounded=0;strokeWidth=3;strokeColor=light-dark(#c9c9c9, #ededed);" edge="1" parent="1">
          <mxGeometry width="50" height="50" relative="1" as="geometry">
            <mxPoint x="1560.5" y="700" as="sourcePoint" />
            <mxPoint x="1551" y="700" as="targetPoint" />
          </mxGeometry>
        </mxCell>
        <mxCell id="OmzKmfgAjD7RHGHbsQaT-359" value="" style="endArrow=none;html=1;rounded=0;strokeWidth=3;entryX=0;entryY=0.75;entryDx=0;entryDy=0;entryPerimeter=0;edgeStyle=orthogonalEdgeStyle;strokeColor=#C9C9C9;" edge="1" parent="1" target="OmzKmfgAjD7RHGHbsQaT-357">
          <mxGeometry width="50" height="50" relative="1" as="geometry">
            <mxPoint x="1544" y="500" as="sourcePoint" />
            <mxPoint x="1539" y="590" as="targetPoint" />
          </mxGeometry>
        </mxCell>
        <mxCell id="OmzKmfgAjD7RHGHbsQaT-360" value="" style="verticalLabelPosition=bottom;shadow=0;dashed=0;align=center;html=1;verticalAlign=top;shape=mxgraph.electrical.logic_gates.logic_gate;operation=and;negating=1;negSize=0.15;strokeWidth=3;direction=south;strokeColor=#C9C9C9;" vertex="1" parent="1">
          <mxGeometry x="1567" y="480" width="60" height="100" as="geometry" />
        </mxCell>
        <mxCell id="OmzKmfgAjD7RHGHbsQaT-361" value="" style="endArrow=none;html=1;rounded=0;strokeWidth=3;entryX=0;entryY=0.25;entryDx=0;entryDy=0;entryPerimeter=0;edgeStyle=orthogonalEdgeStyle;strokeColor=#C9C9C9;" edge="1" parent="1" target="OmzKmfgAjD7RHGHbsQaT-357">
          <mxGeometry width="50" height="50" relative="1" as="geometry">
            <mxPoint x="1600" y="590" as="sourcePoint" />
            <mxPoint x="1516" y="600" as="targetPoint" />
            <Array as="points">
              <mxPoint x="1574" y="590" />
            </Array>
          </mxGeometry>
        </mxCell>
        <mxCell id="OmzKmfgAjD7RHGHbsQaT-362" value="" style="verticalLabelPosition=bottom;shadow=0;dashed=0;align=center;html=1;verticalAlign=top;shape=mxgraph.electrical.logic_gates.logic_gate;operation=and;negating=1;negSize=0.15;strokeWidth=3;direction=south;strokeColor=light-dark(#c9c9c9, #ededed);" vertex="1" parent="1">
          <mxGeometry x="1646" y="596" width="60" height="100" as="geometry" />
        </mxCell>
        <mxCell id="OmzKmfgAjD7RHGHbsQaT-363" value="" style="verticalLabelPosition=bottom;shadow=0;dashed=0;align=center;html=1;verticalAlign=top;shape=mxgraph.electrical.logic_gates.logic_gate;operation=xor;negating=1;negSize=0.15;strokeWidth=3;direction=south;strokeColor=light-dark(#c9c9c9, #ededed);" vertex="1" parent="1">
          <mxGeometry x="1661" y="823" width="60" height="100" as="geometry" />
        </mxCell>
        <mxCell id="OmzKmfgAjD7RHGHbsQaT-364" value="" style="endArrow=none;html=1;rounded=0;strokeWidth=3;entryX=0;entryY=0.75;entryDx=0;entryDy=0;entryPerimeter=0;edgeStyle=orthogonalEdgeStyle;exitX=1;exitY=0.5;exitDx=0;exitDy=0;exitPerimeter=0;strokeColor=light-dark(#c9c9c9, #ededed);" edge="1" parent="1" source="OmzKmfgAjD7RHGHbsQaT-362" target="OmzKmfgAjD7RHGHbsQaT-363">
          <mxGeometry width="50" height="50" relative="1" as="geometry">
            <mxPoint x="1656" y="680" as="sourcePoint" />
            <mxPoint x="1656" y="920" as="targetPoint" />
          </mxGeometry>
        </mxCell>
        <mxCell id="OmzKmfgAjD7RHGHbsQaT-365" value="" style="endArrow=none;html=1;rounded=0;strokeWidth=3;strokeColor=light-dark(#c9c9c9, #ededed);" edge="1" parent="1">
          <mxGeometry width="50" height="50" relative="1" as="geometry">
            <mxPoint x="1419.5" y="699" as="sourcePoint" />
            <mxPoint x="1522.5" y="699" as="targetPoint" />
          </mxGeometry>
        </mxCell>
        <mxCell id="OmzKmfgAjD7RHGHbsQaT-366" value="" style="verticalLabelPosition=bottom;shadow=0;dashed=0;align=center;html=1;verticalAlign=top;shape=mxgraph.electrical.logic_gates.logic_gate;operation=and;negating=1;negSize=0.15;strokeWidth=3;direction=south;strokeColor=light-dark(#c9c9c9, #ededed);" vertex="1" parent="1">
          <mxGeometry x="1688" y="710" width="60" height="100" as="geometry" />
        </mxCell>
        <mxCell id="OmzKmfgAjD7RHGHbsQaT-367" value="" style="endArrow=none;html=1;rounded=0;strokeWidth=3;edgeStyle=orthogonalEdgeStyle;exitX=0;exitY=0.75;exitDx=0;exitDy=0;exitPerimeter=0;strokeColor=light-dark(#c9c9c9, #ededed);" edge="1" parent="1" source="OmzKmfgAjD7RHGHbsQaT-366">
          <mxGeometry width="50" height="50" relative="1" as="geometry">
            <mxPoint x="1720.9899999999998" y="710" as="sourcePoint" />
            <mxPoint x="1675.9899999999998" y="694" as="targetPoint" />
            <Array as="points">
              <mxPoint x="1703" y="701" />
              <mxPoint x="1676" y="701" />
            </Array>
          </mxGeometry>
        </mxCell>
        <mxCell id="OmzKmfgAjD7RHGHbsQaT-368" value="" style="verticalLabelPosition=bottom;shadow=0;dashed=0;align=center;html=1;verticalAlign=top;shape=mxgraph.electrical.logic_gates.logic_gate;operation=xor;negating=1;negSize=0.15;strokeWidth=3;direction=south;strokeColor=#C9C9C9;" vertex="1" parent="1">
          <mxGeometry x="1703" y="480" width="60" height="100" as="geometry" />
        </mxCell>
        <mxCell id="OmzKmfgAjD7RHGHbsQaT-369" value="" style="verticalLabelPosition=bottom;shadow=0;dashed=0;align=center;html=1;verticalAlign=top;shape=mxgraph.electrical.logic_gates.logic_gate;operation=xor;negating=1;negSize=0.15;strokeWidth=3;direction=south;strokeColor=#C9C9C9;" vertex="1" parent="1">
          <mxGeometry x="1799" y="480" width="60" height="100" as="geometry" />
        </mxCell>
        <mxCell id="OmzKmfgAjD7RHGHbsQaT-370" value="" style="endArrow=none;html=1;rounded=0;strokeWidth=3;entryX=0;entryY=0.25;entryDx=0;entryDy=0;entryPerimeter=0;edgeStyle=orthogonalEdgeStyle;strokeColor=#C9C9C9;exitX=1;exitY=0.5;exitDx=0;exitDy=0;exitPerimeter=0;" edge="1" parent="1" source="OmzKmfgAjD7RHGHbsQaT-368" target="OmzKmfgAjD7RHGHbsQaT-366">
          <mxGeometry width="50" height="50" relative="1" as="geometry">
            <mxPoint x="1733" y="594" as="sourcePoint" />
            <mxPoint x="1732.71" y="710" as="targetPoint" />
          </mxGeometry>
        </mxCell>
        <mxCell id="OmzKmfgAjD7RHGHbsQaT-371" value="" style="verticalLabelPosition=bottom;shadow=0;dashed=0;align=center;html=1;verticalAlign=top;shape=mxgraph.electrical.logic_gates.logic_gate;operation=xor;negating=1;negSize=0.15;strokeWidth=3;direction=south;strokeColor=light-dark(#c9c9c9, #ededed);" vertex="1" parent="1">
          <mxGeometry x="1784" y="601" width="60" height="100" as="geometry" />
        </mxCell>
        <mxCell id="OmzKmfgAjD7RHGHbsQaT-372" value="" style="endArrow=none;html=1;rounded=0;strokeWidth=3;exitX=1;exitY=0.5;exitDx=0;exitDy=0;exitPerimeter=0;entryX=0.09;entryY=0.25;entryDx=0;entryDy=0;entryPerimeter=0;strokeColor=#C9C9C9;" edge="1" parent="1" source="OmzKmfgAjD7RHGHbsQaT-369" target="OmzKmfgAjD7RHGHbsQaT-371">
          <mxGeometry width="50" height="50" relative="1" as="geometry">
            <mxPoint x="1724" y="590" as="sourcePoint" />
            <mxPoint x="1829" y="600" as="targetPoint" />
          </mxGeometry>
        </mxCell>
        <mxCell id="OmzKmfgAjD7RHGHbsQaT-373" value="" style="endArrow=none;html=1;rounded=0;strokeWidth=3;edgeStyle=orthogonalEdgeStyle;exitX=0;exitY=0.75;exitDx=0;exitDy=0;exitPerimeter=0;entryX=0;entryY=0.25;entryDx=0;entryDy=0;entryPerimeter=0;strokeColor=#C9C9C9;" edge="1" parent="1" source="OmzKmfgAjD7RHGHbsQaT-371" target="OmzKmfgAjD7RHGHbsQaT-362">
          <mxGeometry width="50" height="50" relative="1" as="geometry">
            <mxPoint x="1780.9899999999998" y="586" as="sourcePoint" />
            <mxPoint x="1735.9899999999998" y="570" as="targetPoint" />
            <Array as="points">
              <mxPoint x="1799" y="590" />
              <mxPoint x="1691" y="590" />
            </Array>
          </mxGeometry>
        </mxCell>
        <mxCell id="OmzKmfgAjD7RHGHbsQaT-374" value="" style="endArrow=none;html=1;rounded=0;strokeWidth=3;exitX=0.986;exitY=0.5;exitDx=0;exitDy=0;exitPerimeter=0;strokeColor=#C9C9C9;" edge="1" parent="1" source="OmzKmfgAjD7RHGHbsQaT-371">
          <mxGeometry width="50" height="50" relative="1" as="geometry">
            <mxPoint x="1813.71" y="701" as="sourcePoint" />
            <mxPoint x="1814" y="770" as="targetPoint" />
          </mxGeometry>
        </mxCell>
        <mxCell id="OmzKmfgAjD7RHGHbsQaT-375" value="" style="endArrow=none;html=1;rounded=0;strokeWidth=3;edgeStyle=orthogonalEdgeStyle;exitX=0;exitY=0.75;exitDx=0;exitDy=0;exitPerimeter=0;entryX=0;entryY=0.25;entryDx=0;entryDy=0;entryPerimeter=0;strokeColor=#C9C9C9;" edge="1" parent="1" source="OmzKmfgAjD7RHGHbsQaT-369">
          <mxGeometry width="50" height="50" relative="1" as="geometry">
            <mxPoint x="1893" y="485" as="sourcePoint" />
            <mxPoint x="1748" y="480" as="targetPoint" />
            <Array as="points">
              <mxPoint x="1814" y="474" />
              <mxPoint x="1748" y="474" />
            </Array>
          </mxGeometry>
        </mxCell>
        <mxCell id="OmzKmfgAjD7RHGHbsQaT-376" value="" style="endArrow=none;html=1;rounded=0;strokeWidth=3;entryX=0.09;entryY=0.25;entryDx=0;entryDy=0;entryPerimeter=0;strokeColor=#C9C9C9;" edge="1" parent="1">
          <mxGeometry width="50" height="50" relative="1" as="geometry">
            <mxPoint x="1789" y="460" as="sourcePoint" />
            <mxPoint x="1789" y="475" as="targetPoint" />
          </mxGeometry>
        </mxCell>
        <mxCell id="OmzKmfgAjD7RHGHbsQaT-377" value="" style="endArrow=none;html=1;rounded=0;strokeWidth=3;entryX=0.09;entryY=0.25;entryDx=0;entryDy=0;entryPerimeter=0;strokeColor=#C9C9C9;" edge="1" parent="1">
          <mxGeometry width="50" height="50" relative="1" as="geometry">
            <mxPoint x="1718" y="460" as="sourcePoint" />
            <mxPoint x="1717.92" y="480" as="targetPoint" />
          </mxGeometry>
        </mxCell>
        <mxCell id="OmzKmfgAjD7RHGHbsQaT-378" value="" style="endArrow=none;html=1;rounded=0;strokeWidth=3;entryX=0.09;entryY=0.25;entryDx=0;entryDy=0;entryPerimeter=0;strokeColor=#C9C9C9;" edge="1" parent="1">
          <mxGeometry width="50" height="50" relative="1" as="geometry">
            <mxPoint x="1844.08" y="460" as="sourcePoint" />
            <mxPoint x="1844" y="480" as="targetPoint" />
          </mxGeometry>
        </mxCell>
        <mxCell id="OmzKmfgAjD7RHGHbsQaT-379" value="" style="endArrow=none;html=1;rounded=0;strokeWidth=3;entryX=0.09;entryY=0.25;entryDx=0;entryDy=0;entryPerimeter=0;strokeColor=#C9C9C9;" edge="1" parent="1">
          <mxGeometry width="50" height="50" relative="1" as="geometry">
            <mxPoint x="1582.08" y="460" as="sourcePoint" />
            <mxPoint x="1582" y="480" as="targetPoint" />
          </mxGeometry>
        </mxCell>
        <mxCell id="OmzKmfgAjD7RHGHbsQaT-380" value="" style="endArrow=none;html=1;rounded=0;strokeWidth=3;entryX=0.09;entryY=0.25;entryDx=0;entryDy=0;entryPerimeter=0;strokeColor=#C9C9C9;" edge="1" parent="1">
          <mxGeometry width="50" height="50" relative="1" as="geometry">
            <mxPoint x="1612.08" y="460" as="sourcePoint" />
            <mxPoint x="1612" y="480" as="targetPoint" />
          </mxGeometry>
        </mxCell>
        <mxCell id="OmzKmfgAjD7RHGHbsQaT-381" value="" style="endArrow=none;html=1;rounded=0;strokeWidth=3;entryX=0.09;entryY=0.25;entryDx=0;entryDy=0;entryPerimeter=0;strokeColor=#C9C9C9;" edge="1" parent="1">
          <mxGeometry width="50" height="50" relative="1" as="geometry">
            <mxPoint x="1544" y="460" as="sourcePoint" />
            <mxPoint x="1544" y="500" as="targetPoint" />
          </mxGeometry>
        </mxCell>
        <mxCell id="OmzKmfgAjD7RHGHbsQaT-382" value="" style="endArrow=none;html=1;rounded=0;strokeWidth=3;strokeColor=light-dark(#c9c9c9, #ededed);" edge="1" parent="1">
          <mxGeometry width="50" height="50" relative="1" as="geometry">
            <mxPoint x="1558.9499999999998" y="700" as="sourcePoint" />
            <mxPoint x="1558.9499999999998" y="690" as="targetPoint" />
            <Array as="points">
              <mxPoint x="1558.9499999999998" y="700" />
            </Array>
          </mxGeometry>
        </mxCell>
        <mxCell id="OmzKmfgAjD7RHGHbsQaT-383" value="" style="endArrow=none;html=1;rounded=0;strokeWidth=3;edgeStyle=orthogonalEdgeStyle;exitX=1;exitY=0.5;exitDx=0;exitDy=0;exitPerimeter=0;entryX=0;entryY=0.25;entryDx=0;entryDy=0;entryPerimeter=0;strokeColor=light-dark(#c9c9c9, #ededed);" edge="1" parent="1" source="OmzKmfgAjD7RHGHbsQaT-366" target="OmzKmfgAjD7RHGHbsQaT-363">
          <mxGeometry width="50" height="50" relative="1" as="geometry">
            <mxPoint x="1733.0100000000002" y="830" as="sourcePoint" />
            <mxPoint x="1706" y="814" as="targetPoint" />
            <Array as="points">
              <mxPoint x="1718" y="821" />
              <mxPoint x="1706" y="821" />
            </Array>
          </mxGeometry>
        </mxCell>
        <mxCell id="OmzKmfgAjD7RHGHbsQaT-384" value="" style="endArrow=none;html=1;rounded=0;strokeWidth=3;strokeColor=light-dark(#c9c9c9, #ededed);" edge="1" parent="1">
          <mxGeometry width="50" height="50" relative="1" as="geometry">
            <mxPoint x="1404.5" y="810" as="sourcePoint" />
            <mxPoint x="1451.5" y="810" as="targetPoint" />
          </mxGeometry>
        </mxCell>
        <mxCell id="OmzKmfgAjD7RHGHbsQaT-385" value="" style="endArrow=none;html=1;rounded=0;strokeWidth=3;strokeColor=light-dark(#c9c9c9, #ededed);" edge="1" parent="1">
          <mxGeometry width="50" height="50" relative="1" as="geometry">
            <mxPoint x="1478.5" y="810" as="sourcePoint" />
            <mxPoint x="1538.5" y="810" as="targetPoint" />
          </mxGeometry>
        </mxCell>
        <mxCell id="OmzKmfgAjD7RHGHbsQaT-386" value="" style="endArrow=none;html=1;rounded=0;strokeWidth=3;strokeColor=light-dark(#c9c9c9, #ededed);" edge="1" parent="1">
          <mxGeometry width="50" height="50" relative="1" as="geometry">
            <mxPoint x="1405.93" y="800" as="sourcePoint" />
            <mxPoint x="1405.93" y="810" as="targetPoint" />
          </mxGeometry>
        </mxCell>
        <mxCell id="OmzKmfgAjD7RHGHbsQaT-387" value="" style="endArrow=none;html=1;rounded=0;strokeWidth=3;entryX=0;entryY=0.75;entryDx=0;entryDy=0;entryPerimeter=0;strokeColor=light-dark(#c9c9c9, #ededed);" edge="1" parent="1" target="OmzKmfgAjD7RHGHbsQaT-353">
          <mxGeometry width="50" height="50" relative="1" as="geometry">
            <mxPoint x="1450" y="810" as="sourcePoint" />
            <mxPoint x="1457.9" y="823.5" as="targetPoint" />
          </mxGeometry>
        </mxCell>
        <mxCell id="OmzKmfgAjD7RHGHbsQaT-388" value="" style="endArrow=none;html=1;rounded=0;strokeWidth=3;entryX=0;entryY=0.75;entryDx=0;entryDy=0;entryPerimeter=0;strokeColor=light-dark(#c9c9c9, #ededed);" edge="1" parent="1">
          <mxGeometry width="50" height="50" relative="1" as="geometry">
            <mxPoint x="1480" y="810" as="sourcePoint" />
            <mxPoint x="1480" y="823.5" as="targetPoint" />
          </mxGeometry>
        </mxCell>
        <mxCell id="OmzKmfgAjD7RHGHbsQaT-389" value="" style="endArrow=none;html=1;rounded=0;strokeWidth=3;entryX=0;entryY=0.75;entryDx=0;entryDy=0;entryPerimeter=0;strokeColor=light-dark(#c9c9c9, #ededed);" edge="1" parent="1">
          <mxGeometry width="50" height="50" relative="1" as="geometry">
            <mxPoint x="1536.94" y="796.5" as="sourcePoint" />
            <mxPoint x="1536.94" y="810" as="targetPoint" />
          </mxGeometry>
        </mxCell>
        <mxCell id="OmzKmfgAjD7RHGHbsQaT-390" value="" style="endArrow=none;html=1;rounded=0;strokeWidth=3;entryX=0;entryY=0.75;entryDx=0;entryDy=0;entryPerimeter=0;strokeColor=light-dark(#c9c9c9, #ededed);" edge="1" parent="1">
          <mxGeometry width="50" height="50" relative="1" as="geometry">
            <mxPoint x="1691" y="917" as="sourcePoint" />
            <mxPoint x="1691" y="929" as="targetPoint" />
          </mxGeometry>
        </mxCell>
        <mxCell id="OmzKmfgAjD7RHGHbsQaT-391" value="" style="endArrow=none;html=1;rounded=0;strokeWidth=3;entryX=0.5;entryY=0;entryDx=0;entryDy=0;strokeColor=light-dark(#c9c9c9, #ededed);" edge="1" parent="1">
          <mxGeometry width="50" height="50" relative="1" as="geometry">
            <mxPoint x="1465" y="917" as="sourcePoint" />
            <mxPoint x="1465" y="928" as="targetPoint" />
          </mxGeometry>
        </mxCell>
        <mxCell id="OmzKmfgAjD7RHGHbsQaT-392" value="" style="endArrow=none;html=1;rounded=0;strokeWidth=3;entryX=0.879;entryY=0.499;entryDx=0;entryDy=0;entryPerimeter=0;strokeColor=#C9C9C9;" edge="1" parent="1" target="OmzKmfgAjD7RHGHbsQaT-360">
          <mxGeometry width="50" height="50" relative="1" as="geometry">
            <mxPoint x="1597" y="591" as="sourcePoint" />
            <mxPoint x="1574" y="595" as="targetPoint" />
          </mxGeometry>
        </mxCell>
        <mxCell id="OmzKmfgAjD7RHGHbsQaT-393" value="" style="endArrow=none;html=1;rounded=0;strokeWidth=3;edgeStyle=orthogonalEdgeStyle;exitX=0;exitY=0.75;exitDx=0;exitDy=0;exitPerimeter=0;strokeColor=#C9C9C9;" edge="1" parent="1" source="OmzKmfgAjD7RHGHbsQaT-362">
          <mxGeometry width="50" height="50" relative="1" as="geometry">
            <mxPoint x="1661" y="596" as="sourcePoint" />
            <mxPoint x="1600" y="590" as="targetPoint" />
            <Array as="points">
              <mxPoint x="1661" y="590" />
            </Array>
          </mxGeometry>
        </mxCell>
        <mxCell id="OmzKmfgAjD7RHGHbsQaT-395" value="" style="endArrow=none;html=1;rounded=0;strokeWidth=3;strokeColor=#C9C9C9;" edge="1" parent="1">
          <mxGeometry width="50" height="50" relative="1" as="geometry">
            <mxPoint x="1733" y="580" as="sourcePoint" />
            <mxPoint x="1733" y="590" as="targetPoint" />
          </mxGeometry>
        </mxCell>
        <mxCell id="OmzKmfgAjD7RHGHbsQaT-399" value="" style="ellipse;whiteSpace=wrap;html=1;aspect=fixed;strokeColor=#B20000;fillColor=#e51400;fontColor=#ffffff;" vertex="1" parent="1">
          <mxGeometry x="1784" y="450" width="12" height="12" as="geometry" />
        </mxCell>
        <mxCell id="OmzKmfgAjD7RHGHbsQaT-400" value="&lt;font style=&quot;font-size: 30px;&quot; face=&quot;Times New Roman&quot;&gt;&lt;b style=&quot;&quot;&gt;3.&amp;nbsp;&lt;/b&gt;&lt;/font&gt;&lt;font face=&quot;Times New Roman&quot;&gt;&lt;span style=&quot;font-size: 30px;&quot;&gt;&lt;b&gt;Iteratively Compute MFFC for a New PO&lt;/b&gt;&lt;/span&gt;&lt;/font&gt;" style="text;html=1;align=center;verticalAlign=middle;whiteSpace=wrap;rounded=0;" vertex="1" parent="1">
          <mxGeometry x="694.5" y="960" width="575.5" height="30" as="geometry" />
        </mxCell>
        <mxCell id="OmzKmfgAjD7RHGHbsQaT-401" value="&lt;font style=&quot;font-size: 30px;&quot;&gt;&lt;font face=&quot;Times New Roman&quot;&gt;&lt;b style=&quot;&quot;&gt;4.&amp;nbsp;&lt;/b&gt;&lt;/font&gt;&lt;/font&gt;&lt;font face=&quot;Times New Roman&quot;&gt;&lt;span style=&quot;font-size: 30px;&quot;&gt;&lt;b&gt;Continue Partitioning by Repeating the Process&lt;/b&gt;&lt;/span&gt;&lt;/font&gt;" style="text;html=1;align=center;verticalAlign=middle;whiteSpace=wrap;rounded=0;" vertex="1" parent="1">
          <mxGeometry x="1320" y="960" width="660" height="30" as="geometry" />
        </mxCell>
        <mxCell id="OmzKmfgAjD7RHGHbsQaT-403" value="" style="endArrow=none;html=1;rounded=0;strokeWidth=3;entryX=0;entryY=0.25;entryDx=0;entryDy=0;entryPerimeter=0;edgeStyle=orthogonalEdgeStyle;strokeColor=#C9C9C9;" edge="1" parent="1" source="OmzKmfgAjD7RHGHbsQaT-278" target="OmzKmfgAjD7RHGHbsQaT-283">
          <mxGeometry width="50" height="50" relative="1" as="geometry">
            <mxPoint x="1719" y="-7" as="sourcePoint" />
            <mxPoint x="1719" y="109" as="targetPoint" />
          </mxGeometry>
        </mxCell>
        <mxCell id="OmzKmfgAjD7RHGHbsQaT-283" value="&lt;font style=&quot;font-size: 30px;&quot; face=&quot;Times New Roman&quot;&gt;&lt;b style=&quot;&quot;&gt;New PO2&lt;/b&gt;&lt;/font&gt;" style="text;html=1;align=center;verticalAlign=middle;whiteSpace=wrap;rounded=0;" vertex="1" parent="1">
          <mxGeometry x="1637" y="20" width="150" height="20" as="geometry" />
        </mxCell>
        <mxCell id="OmzKmfgAjD7RHGHbsQaT-405" value="&lt;font style=&quot;font-size: 30px;&quot; face=&quot;Times New Roman&quot;&gt;&lt;b style=&quot;&quot;&gt;New PO1&lt;/b&gt;&lt;/font&gt;" style="text;html=1;align=center;verticalAlign=middle;whiteSpace=wrap;rounded=0;" vertex="1" parent="1">
          <mxGeometry x="823" y="620" width="183" height="20" as="geometry" />
        </mxCell>
        <mxCell id="OmzKmfgAjD7RHGHbsQaT-406" value="&lt;font style=&quot;font-size: 30px;&quot; face=&quot;Times New Roman&quot;&gt;&lt;b style=&quot;&quot;&gt;New PO2&lt;/b&gt;&lt;/font&gt;" style="text;html=1;align=center;verticalAlign=middle;whiteSpace=wrap;rounded=0;" vertex="1" parent="1">
          <mxGeometry x="997" y="620" width="150" height="20" as="geometry" />
        </mxCell>
        <mxCell id="OmzKmfgAjD7RHGHbsQaT-407" value="&lt;font style=&quot;font-size: 30px;&quot; face=&quot;Times New Roman&quot;&gt;&lt;b style=&quot;&quot;&gt;New PO1&lt;/b&gt;&lt;/font&gt;" style="text;html=1;align=center;verticalAlign=middle;whiteSpace=wrap;rounded=0;" vertex="1" parent="1">
          <mxGeometry x="1692" y="495" width="183" height="20" as="geometry" />
        </mxCell>
      </root>
    </mxGraphModel>
  </diagram>
</mxfile>
